<?xml version="1.0" encoding="UTF-8" standalone="no"?>
<svg
   xmlns:dc="http://purl.org/dc/elements/1.1/"
   xmlns:cc="http://creativecommons.org/ns#"
   xmlns:rdf="http://www.w3.org/1999/02/22-rdf-syntax-ns#"
   xmlns:svg="http://www.w3.org/2000/svg"
   xmlns="http://www.w3.org/2000/svg"
   xmlns:sodipodi="http://sodipodi.sourceforge.net/DTD/sodipodi-0.dtd"
   xmlns:inkscape="http://www.inkscape.org/namespaces/inkscape"
   width="165.59648"
   height="199.4146"
   viewBox="0 0 165.59648 199.4146"
   version="1.1"
   id="svg26"
   sodipodi:docname="Lake-superior-st_logo_from_NCAA.svg"
   inkscape:version="1.0.1 (3bc2e813f5, 2020-09-07)">
  <metadata
     id="metadata32">
    <rdf:RDF>
      <cc:Work
         rdf:about="">
        <dc:format>image/svg+xml</dc:format>
        <dc:type
           rdf:resource="http://purl.org/dc/dcmitype/StillImage" />
      </cc:Work>
    </rdf:RDF>
  </metadata>
  <defs
     id="defs30" />
  <sodipodi:namedview
     pagecolor="#ffffff"
     bordercolor="#666666"
     borderopacity="1"
     objecttolerance="10"
     gridtolerance="10"
     guidetolerance="10"
     inkscape:pageopacity="0"
     inkscape:pageshadow="2"
     inkscape:window-width="747"
     inkscape:window-height="480"
     id="namedview28"
     showgrid="false"
     inkscape:zoom="1.2704305"
     inkscape:cx="82.999994"
     inkscape:cy="99.50128"
     inkscape:window-x="0"
     inkscape:window-y="27"
     inkscape:window-maximized="0"
     inkscape:current-layer="svg26" />
  <!-- Generator: Sketch 54.1 (76490) - https://sketchapp.com -->
  <title
     id="title2">lake-superior-st</title>
  <desc
     id="desc4">Created with Sketch.</desc>
  <g
     id="g24"
     stroke="none"
     stroke-width="1"
     fill="none"
     fill-rule="evenodd"
     transform="translate(-17.000006,-0.49872)">
    <g
       id="lake-superior-st_BGL">
      <g
         id="lake-superior-st"
         transform="translate(17)">
        <g
           id="g10"
           transform="matrix(1,0,0,-1,0,199.91332)"
           fill-rule="nonzero">
          <g
             id="g12">
            <path
               d="m 82.440438,182.08489 c 0,-3.82581 3.100856,-6.92666 6.927324,-6.92666 3.824809,0 6.925997,3.10085 6.925997,6.92666 0,3.82514 -3.101188,6.92599 -6.925997,6.92599 -3.826468,0 -6.927324,-3.10085 -6.927324,-6.92599 z M 89.228081,0.22991624 C 86.775863,3.6157854 81.014428,7.5112981 76.68033,7.8473624 57.099416,9.3733048 38.605758,28.101467 31.915825,47.166457 c -1.717216,2.50099 -1.710348,6.376563 -5.15261,7.501311 -4.389407,1.559718 -7.498591,-3.516581 -9.655189,-5.578621 3.810079,11.445563 5.470161,24.532795 4.977794,37.794878 0.03616,0.471133 -0.0862,1.391171 -0.0862,1.391171 l 0.03849,0.550099 c 5.240268,-14.232884 19.568307,-26.389792 33.493626,-30.937892 -0.0866,-0.343396 0.170537,-0.77538 -0.174187,-1.032844 -4.306892,-0.593894 -9.468792,2.257129 -13.263409,-0.835765 -0.86463,-1.720965 0.597211,-3.10152 1.197077,-4.480747 4.174842,-5.439604 8.911727,-11.131363 14.427973,-15.368249 l 0.242534,-0.207033 c 3.219635,-2.48407 7.248492,-4.865617 11.269386,-2.62541 l 0.04778,0.0086 c 7.963155,3.604504 11.991016,12.562349 12.714638,20.846008 l 0.430656,3.185461 V 143.2784 H 66.062237 v 13.13302 H 82.42418 v 9.79526 l -0.01526,0.18249 c -6.012595,2.6692 -10.206017,8.69274 -10.206017,15.69572 0,9.47907 7.684788,17.16386 17.164861,17.16386 9.479078,0 17.164196,-7.68479 17.164196,-17.16386 0,-6.97809 -4.16456,-12.98306 -10.142313,-15.66719 l 0.02886,-0.21102 v -9.79526 H 112.3498 V 143.2784 H 96.41851 V 57.593111 l 0.611811,-3.022887 c 1.921031,-7.906752 6.381869,-14.916691 13.296259,-20.272353 3.53018,-2.75517 8.09321,-1.032513 11.53813,0.862639 6.80357,4.304238 12.4867,11.022207 17.39644,17.394788 0.60186,1.3779 2.06702,2.755468 1.20571,4.477429 -3.78898,3.099861 -8.95619,0.259455 -13.26208,0.861312 -0.34473,0.258792 -0.0856,0.689448 -0.17319,1.034504 13.77535,4.468802 28.03975,16.037126 33.42395,30.067952 l 0.0753,-0.272063 c -0.51625,-13.262414 1.12044,-27.212617 4.90809,-38.666475 -2.15096,2.067017 -5.25281,7.148293 -9.64431,5.597533 -3.44459,-1.118445 -3.44459,-4.994017 -5.16721,-7.491358 C 143.39386,27.667825 121.60724,12.511653 101.37039,8.465178 97.064163,7.8609656 91.552562,3.620729 89.313681,0.08864879 Z"
               id="path14"
               fill="#fbc018" />
            <path
               d="m 89.367762,188.84499 c -3.72826,0 -6.761432,-3.03251 -6.761432,-6.7601 0,-3.72793 3.033172,-6.76077 6.761432,-6.76077 3.727597,0 6.760105,3.03284 6.760105,6.76077 0,3.72759 -3.032508,6.7601 -6.760105,6.7601 z m 0,-13.85266 c -3.911073,0 -7.093217,3.18181 -7.093217,7.09256 0,3.91041 3.182144,7.09189 7.093217,7.09189 3.91041,0 7.09189,-3.18148 7.09189,-7.09189 0,-3.91075 -3.18148,-7.09256 -7.09189,-7.09256 z M 25.123338,55.125963 c 0.54343,0 1.108093,-0.09323 1.695318,-0.301924 2.366054,-0.773058 3.15507,-2.816185 3.918174,-4.791961 0.370935,-0.960847 0.754411,-1.954209 1.315724,-2.771726 l 0.01984,-0.03882 C 35.396741,37.747101 41.776621,28.208667 49.576206,21.052112 57.967032,13.352361 67.597403,8.7216473 76.69327,8.012591 81.099034,7.67082 86.8535,3.7382801 89.314013,0.39347628 91.61925,3.8546701 97.02833,8.0236063 101.34717,8.629378 c 10.22293,2.044488 20.67679,6.891923 29.42661,13.647616 9.47974,7.319858 16.29094,16.290277 19.69737,25.942215 l 0.0196,0.03915 c 0.56337,0.816521 0.9489,1.80922 1.32182,2.769404 0.76676,1.974116 1.55939,4.015585 3.93065,4.785657 3.64565,1.286659 6.43197,-1.873918 8.46647,-4.18181 0.29529,-0.335102 0.58063,-0.658592 0.85136,-0.949898 -3.51426,10.956845 -5.18313,24.25476 -4.71299,37.591825 -5.23224,-12.882189 -18.44024,-24.648588 -33.13265,-29.45946 0.006,-0.10219 -0.005,-0.203716 -0.0153,-0.302919 -0.0232,-0.221632 -0.0315,-0.358659 0.0743,-0.45919 1.54047,-0.205706 3.23622,0.0355 4.87491,0.269409 2.93198,0.417385 5.96482,0.851027 8.42267,-1.160249 l 0.0435,-0.05408 c 0.68248,-1.365293 -0.0189,-2.542132 -0.63769,-3.579953 -0.214,-0.358659 -0.41573,-0.697411 -0.5647,-1.038153 l -0.0206,-0.03451 c -4.75779,-6.175501 -10.55008,-13.075619 -17.43891,-17.433938 -5.06336,-2.786623 -8.8968,-3.063696 -11.72924,-0.853681 -6.77537,5.248164 -11.393808,12.289954 -13.355317,20.364257 l -0.613137,3.028859 -0.0033,85.884361 H 112.1839 v 12.80123 H 96.252618 v 9.96116 l -0.04413,0.31155 0.113138,0.0511 c 6.101514,2.73922 10.044444,8.82945 10.044444,15.51557 0,9.37257 -7.625404,16.99797 -16.998311,16.99797 -9.373238,0 -16.998969,-7.6254 -16.998969,-16.99797 0,-6.71665 3.967477,-12.81816 10.107477,-15.5441 l 0.08991,-0.0398 0.02322,-0.28069 6.63e-4,-9.97477 H 66.228129 V 143.44429 H 82.590072 V 57.377451 L 82.158089,54.169429 C 81.491203,46.535071 77.774886,37.009876 69.347233,33.19502 l -0.05972,-0.01593 c -4.125738,-2.279723 -8.27271,0.218978 -11.427315,2.652616 l -0.248838,0.212342 c -5.660241,4.34671 -10.482063,10.220951 -14.45153,15.392805 l -0.02057,0.03517 c -0.148307,0.340742 -0.349369,0.679494 -0.562374,1.038153 -0.617119,1.039812 -1.31652,2.21831 -0.630722,3.582939 l 0.04313,0.05408 c 2.461176,2.005636 5.492689,1.568012 8.424667,1.144324 1.638351,-0.237226 3.333105,-0.482415 4.874243,-0.278699 0.105839,0.100199 0.09788,0.237889 0.07532,0.459853 -0.01029,0.09821 -0.0209,0.198739 -0.01526,0.300265 -14.473759,4.775371 -27.953491,17.070302 -33.140607,30.144927 0.03175,-0.315195 0.06569,-0.7568 0.04353,-1.046448 0.490311,-13.177809 -1.156169,-26.01388 -4.764058,-37.159511 0.273059,0.29197 0.559886,0.616124 0.857165,0.951889 1.709485,1.931649 3.949295,4.462168 6.77905,4.462168 z M 89.454026,0 89.173668,0.17755636 c 0.005,0.007906 0.01028,0.0162004 0.01526,0.0242359 l -0.09522,-0.0690785 C 86.703534,3.4329391 81.012438,7.3450078 76.66739,7.6818352 67.497868,8.3968636 57.796826,13.05767 49.351588,20.807554 41.404027,28.100439 35.159183,37.43456 31.766655,47.091142 c -0.576475,0.845387 -0.964231,1.850029 -1.339446,2.821162 -0.769076,1.991369 -1.495219,3.872255 -3.715586,4.597867 -3.43994,1.222293 -6.033929,-1.710016 -8.118862,-4.066017 -0.487457,-0.551094 -0.94804,-1.071663 -1.370037,-1.474781 l -0.272162,0.172196 c 3.749395,11.263082 5.467805,24.31249 4.969498,37.736152 0.03474,0.467816 -0.08374,1.366951 -0.0849,1.375909 l -0.0022,0.01659 0.03978,0.566688 0.321167,0.04546 C 27.105351,75.54231 40.835681,62.861845 55.583493,58.045001 l 0.146981,-0.04811 -0.03782,-0.150298 c -0.02455,-0.09655 -0.01228,-0.214996 6.64e-4,-0.340079 0.02588,-0.251824 0.05806,-0.565029 -0.236562,-0.78467 l -0.03417,-0.02555 -0.04214,-0.006 c -1.600527,-0.220637 -3.336091,0.03019 -5.014256,0.272395 -2.849364,0.412076 -5.795276,0.837755 -8.139333,-1.050098 -0.577636,-1.189447 0.03882,-2.227931 0.635367,-3.232906 0.205043,-0.345719 0.417053,-0.703051 0.572992,-1.056733 3.953873,-5.151283 8.754461,-10.996991 14.385172,-15.321468 l 0.24917,-0.212673 c 5.856988,-4.518538 8.998986,-3.766714 11.080932,-2.606498 l 0.07896,0.02322 c 5.435622,2.469802 11.594202,9.201042 12.598845,20.701018 l 0.43132,3.193424 -0.0013,85.712495 h -16.36197 v 13.4648 h 16.361943 l -0.0063,9.70038 c -6.209011,2.79827 -10.214975,8.99201 -10.214975,15.8072 0,9.55572 7.774701,17.32975 17.330753,17.32975 9.556052,0 17.330084,-7.77403 17.330084,-17.32975 0,-6.77471 -3.97112,-12.94988 -10.127047,-15.76706 l 0.01195,-0.0886 0.0017,-9.65194 h 15.931287 v -13.4648 H 96.584402 V 57.593111 l 0.608825,-2.989709 c 1.941933,-7.994343 6.518903,-14.972762 13.234543,-20.174476 2.71765,-2.120135 6.4323,-1.833075 11.35698,0.877237 6.8311,4.321491 12.59519,11.18644 17.33241,17.334403 0.1566,0.353682 0.36961,0.711014 0.57531,1.056402 0.59854,1.002984 1.21666,2.040141 0.64167,3.22992 -2.3404,1.891834 -5.28731,1.472459 -8.13767,1.066023 -1.67916,-0.239548 -3.41373,-0.487391 -5.01492,-0.263105 l -0.0421,0.006 -0.0342,0.02588 c -0.29396,0.220637 -0.26144,0.532846 -0.23523,0.784007 0.0133,0.125746 0.0255,0.244524 9.9e-4,0.342069 l -0.0382,0.15063 0.14764,0.04811 c 14.90674,4.835756 28.29689,16.879526 33.3201,29.969413 l 0.18016,0.469806 0.21699,-0.782015 -0.001,-0.02588 c -0.53417,-13.726249 1.20571,-27.437236 4.89979,-38.60775 l -0.27272,-0.171532 c -0.41971,0.40345 -0.8779,0.923356 -1.36297,1.473454 -2.08162,2.362304 -4.67252,5.300918 -8.1108,4.086919 -2.22561,-0.722294 -2.95554,-2.601521 -3.72826,-4.591231 -0.37691,-0.970801 -0.76676,-1.97478 -1.34506,-2.819503 C 147.34641,38.383795 140.50004,29.367954 130.9765,22.014287 122.1872,15.227871 111.68424,10.358273 101.40257,8.3022387 97.073784,7.694808 91.634181,3.4399397 89.454026,0 Z"
               id="path16"
               fill="#25529b" />
            <path
               d="m 13.392805,54.163456 c -1.016587,1.016256 -1.942497,1.826141 -2.77856,2.432311 -0.8346371,0.608161 -1.646082,0.975114 -2.4327758,1.10816 -0.7866937,0.129064 -1.6059024,0.01526 -2.4574268,-0.34572 -0.8531502,-0.359654 -1.8188416,-1.01526 -2.9002461,-1.96549 -0.1959617,-0.196084 -0.433652,-0.25481 -0.7095771,-0.172859 -0.2761872,0.07863 -0.512192,0.215991 -0.7065977,0.412076 -0.1944057,0.194425 -0.3240073,0.419375 -0.3888114,0.681485 -0.0633742,0.261114 0.00298,0.488054 0.2004972,0.685134 1.0475824,1.047775 2.2894445,2.198403 3.7255728,3.446576 1.4347017,1.249499 2.7415006,2.461839 3.9170124,3.637351 0.6863622,0.686793 1.3158565,1.347044 1.8897435,1.98407 0.572328,0.635699 1.130788,1.255804 1.673819,1.858988 0.543031,0.604842 1.092168,1.217316 1.65076,1.838748 0.558326,0.620437 1.183275,1.274384 1.871197,1.962504 0.195852,0.195753 0.416422,0.256138 0.66035,0.175846 0.245056,-0.08162 0.455009,-0.22694 0.634007,-0.438287 0.177305,-0.211347 0.3069,-0.454876 0.387126,-0.729594 0.08036,-0.277703 0.03862,-0.49834 -0.12495,-0.661909 -0.950098,-1.081285 -1.630521,-2.040806 -2.040839,-2.875575 -0.408924,-0.835765 -0.557032,-1.638019 -0.441173,-2.40809 0.114034,-0.771399 0.482779,-1.565691 1.106036,-2.384866 0.623389,-0.819507 1.491868,-1.785 2.605668,-2.900127 l 17.107031,-17.10713 c 1.050429,-1.049102 1.976107,-1.877568 2.778362,-2.483738 0.803581,-0.60617 1.571994,-1.01526 2.310877,-1.227933 0.737557,-0.214665 1.467151,-0.221964 2.185795,-0.02654 0.720636,0.197743 1.524218,0.540145 2.40975,1.03384 0.557066,0.357995 1.146315,0.800595 1.769737,1.326805 0.621764,0.522892 1.244855,1.09522 1.867946,1.718311 0.786992,0.786661 1.490375,1.556732 2.113466,2.31121 0.623423,0.752486 1.047443,1.374582 1.27737,1.867945 0.425679,0.884206 0.745187,1.694091 0.95952,2.431316 0.213005,0.737556 0.268413,1.482744 0.171201,2.235562 -0.09854,0.754146 -0.36065,1.556732 -0.786661,2.409418 -0.42402,0.852022 -1.064364,1.836094 -1.917382,2.949894 -0.163569,0.229595 -0.18049,0.475115 -0.04778,0.737225 0.129395,0.261114 0.309886,0.50763 0.539813,0.737556 0.228267,0.2286 0.484405,0.383875 0.762108,0.464498 0.277704,0.08328 0.484074,0.02621 0.613801,-0.171532 1.214331,-1.539479 2.349697,-2.972787 3.41572,-4.297934 1.066022,-1.328132 2.23523,-2.597871 3.510941,-3.807225 0.09887,-0.09754 0.171201,-0.303914 0.220637,-0.612142 0.04943,-0.313868 -0.172528,-0.714663 -0.663237,-1.205372 L 41.500576,30.956504 c -1.274383,-1.274383 -2.460512,-2.54243 -3.555732,-3.804239 -1.097211,-1.262074 -2.184468,-2.499397 -3.264426,-3.713661 -0.229926,-0.229628 -0.484405,-0.318812 -0.762108,-0.269442 -0.277704,0.04874 -0.515261,0.172262 -0.712673,0.369906 -0.195952,0.195819 -0.327106,0.441306 -0.39333,0.735864 -0.06506,0.29343 0,0.572461 0.195819,0.83623 0.885632,1.146314 1.565789,2.103844 2.040905,2.875508 0.475447,0.768412 0.720303,1.473454 0.737556,2.112139 0.01526,0.639978 -0.222295,1.318842 -0.714332,2.039179 -0.490708,0.721863 -1.277369,1.624715 -2.36028,2.706 l -19.2698,19.271028 -0.04937,0.04844"
               id="path18"
               fill="#324ea9" />
            <path
               d="m 2.3849585,56.178387 c 7.8e-4,0 0.00195,0 0.00352,-10e-4 -0.00117,10e-4 -0.00274,10e-4 -0.00352,10e-4 z m 11.7077125,-1.307235 0.04522,-0.04413 19.278095,-19.279323 c 1.13603,-1.134702 1.947574,-2.067348 2.479424,-2.84996 0.607829,-0.889879 0.906435,-1.773122 0.886196,-2.623187 -0.0219,-0.818445 -0.31984,-1.69638 -0.886196,-2.611374 -0.494026,-0.803018 -1.181152,-1.77206 -2.099531,-2.960512 -0.01,-0.0136 -0.01493,-0.02827 -0.01526,-0.02827 0.03517,-0.124684 0.08991,-0.1927 0.128401,-0.23122 0.02986,-0.02993 0.05972,-0.05143 0.09323,-0.06699 1.023223,1.148273 2.102517,2.376538 3.191433,3.629024 1.098538,1.265425 2.310878,2.562636 3.603178,3.855035 L 58.62894,49.491926 c 0.231586,0.231586 0.328135,0.377903 0.365958,0.445587 -0.004,0.01825 -0.0076,0.03417 -0.01095,0.04745 -1.246513,1.189115 -2.42667,2.472788 -3.496011,3.804902 -1.083939,1.347376 -2.212006,2.77239 -3.1984,4.022885 -0.03816,-0.02853 -0.07565,-0.06105 -0.112807,-0.09821 -0.109489,-0.109821 -0.201393,-0.223291 -0.274718,-0.338752 0.825148,-1.092234 1.45952,-2.080288 1.886858,-2.938945 0.473124,-0.946581 0.770403,-1.863633 0.882878,-2.724281 0.115129,-0.890509 0.04711,-1.778696 -0.201725,-2.640672 C 54.24076,48.283571 53.898027,47.413964 53.450782,46.484968 53.18635,45.916953 52.723842,45.2358 52.043021,44.413971 51.401352,43.636604 50.668772,42.835676 49.86685,42.034086 49.231483,41.398719 48.581849,40.800843 47.935865,40.257712 47.280923,39.70496 46.650532,39.232499 46.063606,38.85526 l -0.05342,-0.03185 c -0.943927,-0.525878 -1.829127,-0.904444 -2.63105,-1.124417 -0.899799,-0.244525 -1.816519,-0.234572 -2.727267,0.03052 -0.848041,0.244193 -1.7349,0.712009 -2.632377,1.389181 -0.831451,0.628399 -1.800925,1.494025 -2.88221,2.573983 L 18.029889,58.800142 c -1.160216,1.161577 -2.04127,2.142995 -2.694188,3.001321 -0.723323,0.950894 -1.160216,1.906764 -1.298371,2.842396 -0.145421,0.965161 0.03344,1.972458 0.531618,2.990704 0.429793,0.874251 1.121729,1.864959 2.058754,2.947903 -0.03875,0.09058 -0.08759,0.169874 -0.148639,0.242535 -0.004,0.0046 -0.0079,0.009 -0.01181,0.0136 -0.610284,-0.615792 -1.165259,-1.200064 -1.65139,-1.740209 L 11.491416,65.400327 C 10.91222,64.757993 10.264444,64.077835 9.5657729,63.378765 8.3876732,62.200931 7.0528717,60.961053 5.5985947,59.694632 4.2525458,58.524429 3.0578602,57.422574 2.044362,56.415608 c 0.018145,-0.02687 0.040176,-0.05308 0.067004,-0.07996 0.046009,-0.04645 0.095388,-0.08228 0.1517648,-0.110816 1.1353361,0.986063 2.1419696,1.657595 3.074184,2.050427 1.020104,0.432647 2.0323116,0.571001 3.0055013,0.410749 0.9454526,-0.159588 1.9053049,-0.591903 2.8576249,-1.285664 0.874318,-0.63404 1.847873,-1.485398 2.89223,-2.529192 z M 34.064295,22.160604 c -0.106171,0 -0.213338,0.0096 -0.320836,0.02877 -0.479096,0.08437 -0.897841,0.30199 -1.241935,0.646348 -0.329992,0.329429 -0.552255,0.740278 -0.66035,1.220967 -0.128799,0.581684 -0.0017,1.150362 0.367451,1.647641 0.874683,1.132114 1.540806,2.0703 1.992697,2.804241 0.379893,0.613535 0.577968,1.156965 0.590244,1.616784 0.01,0.421731 -0.171864,0.910748 -0.54114,1.451192 -0.45554,0.670304 -1.20952,1.532147 -2.241933,2.563067 L 12.689058,53.459742 c -0.971896,0.971464 -1.86642,1.755471 -2.65892,2.330121 -0.7029844,0.511943 -1.3800234,0.825479 -2.0144282,0.932646 -0.6000651,0.0992 -1.2242509,0.0066 -1.9032475,-0.28069 C 5.3679051,56.127951 4.4897052,55.529412 3.500059,54.661796 3.0487859,54.228486 2.4425032,54.08416 1.8307758,54.265978 1.4002326,54.388074 1.0163482,54.612692 0.70089435,54.930873 0.3794783,55.252041 0.1604489,55.637906 0.052619,56.074866 c -0.14748874,0.606501 0.01762604,1.183143 0.46372033,1.628397 1.07078077,1.071 2.34154117,2.246512 3.77572197,3.493025 1.4191742,1.236229 2.7202664,2.444255 3.8660835,3.589906 0.6743184,0.67485 1.2981061,1.32946 1.8541102,1.946579 l 3.323649,3.697073 c 0.558095,0.619773 1.199865,1.292963 1.907627,2.000991 0.463868,0.463171 1.07392,0.615791 1.675644,0.417053 0.421996,-0.140345 0.785001,-0.389183 1.082214,-0.740211 0.269575,-0.321499 0.464597,-0.688121 0.583078,-1.093893 0.176907,-0.61181 0.0495,-1.19741 -0.348639,-1.616121 -0.878466,-1.001657 -1.51078,-1.889512 -1.879525,-2.639345 -0.320869,-0.656269 -0.435699,-1.252485 -0.350033,-1.820832 0.08888,-0.601525 0.396184,-1.250163 0.913834,-1.930653 0.589945,-0.77538 1.437024,-1.717315 2.517645,-2.799264 L 36.544382,43.100772 c 1.016588,-1.014928 1.916387,-1.8205 2.674514,-2.393492 0.702055,-0.529196 1.370601,-0.887855 1.986724,-1.065691 0.56337,-0.163901 1.10252,-0.170869 1.648636,-0.02223 0.639017,0.175182 1.365956,0.487391 2.159253,0.927337 0.507298,0.328134 1.058723,0.742865 1.639346,1.233242 0.603847,0.507962 1.211344,1.066686 1.806565,1.661576 0.757464,0.757463 1.446912,1.511277 2.049764,2.241203 0.702387,0.847709 1.008956,1.367283 1.142665,1.654608 0.405109,0.841405 0.708028,1.607495 0.905771,2.288648 0.174851,0.605175 0.220637,1.204377 0.140013,1.830454 -0.08361,0.638353 -0.315858,1.343063 -0.690111,2.0919 -0.393828,0.791306 -1.004975,1.72926 -1.817183,2.789643 l -0.02024,0.02787 c -0.378566,0.530854 -0.424352,1.174184 -0.125414,1.764097 0.173855,0.350364 0.41838,0.68613 0.723953,0.991371 0.34771,0.348042 0.747842,0.589249 1.189447,0.716986 0.668545,0.200398 1.315857,-0.0037 1.692432,-0.536827 1.029858,-1.305239 2.235231,-2.83012 3.389177,-4.264755 1.040143,-1.295618 2.190771,-2.542795 3.420364,-3.708354 0.275713,-0.271731 0.43132,-0.63039 0.518911,-1.177502 0.152289,-0.971465 -0.671532,-1.795617 -0.9426,-2.066353 L 42.204291,30.252757 c -1.259122,-1.259487 -2.439278,-2.522191 -3.507624,-3.753178 -1.111145,-1.278 -2.211674,-2.529855 -3.272388,-3.722586 l -0.04048,-0.04277 c -0.376575,-0.37558 -0.836096,-0.573622 -1.319506,-0.573622 z"
               id="path20"
               fill="#25529b" />
            <path
               d="m 66.433504,75.340917 c -0.360982,0.361313 -0.597212,0.564697 -0.712673,0.61546 -0.114134,0.04811 -0.236231,0.008 -0.367285,-0.123092 -2.457527,-2.916053 -3.881213,-5.469133 -4.273382,-7.665877 -0.391837,-2.195085 0.118779,-3.997005 1.528862,-5.407088 0.982745,-0.984073 2.058058,-1.56735 3.221294,-1.74784 1.162904,-0.180491 2.317181,0.300928 3.463496,1.447243 0.752487,0.752487 1.399134,1.695086 1.938948,2.824148 0.541472,1.131053 0.857662,2.303578 0.958193,3.51625 -0.0017,0.524219 -0.132714,0.918047 -0.395156,1.180157 z m 9.484386,-0.268414 c 1.147974,-1.147973 2.058058,-1.845052 2.729258,-2.090241 0.673853,-0.246847 1.320501,-0.05839 1.943592,0.564697 0.359654,0.359323 0.612474,0.69542 0.760781,1.007297 0.147976,0.311546 0.302256,0.811213 0.467153,1.499665 0.03252,0.163238 0.138685,0.269741 0.319508,0.317518 0.178832,0.04944 0.368612,0.05873 0.564365,0.02488 0.196085,-0.03251 0.385865,-0.105176 0.566356,-0.218978 0.177505,-0.114466 0.268413,-0.268745 0.267086,-0.466157 0.25282,-2.809549 -0.487723,-5.081276 -2.224614,-6.818499 -0.950562,-0.950562 -2.016584,-1.505969 -3.195082,-1.672525 -1.180157,-0.163569 -2.277036,-0.0647 -3.295282,0.296284 -0.228268,0.09854 -0.342401,0.01559 -0.342401,-0.246848 -0.09887,-1.604177 -0.467485,-3.220962 -1.107828,-4.842392 -0.638353,-1.621762 -1.809552,-3.284665 -3.513928,-4.989041 -1.868277,-1.868277 -3.809216,-2.812535 -5.822483,-2.829124 -2.014594,-0.01725 -3.936621,0.888186 -5.769397,2.721294 -2.357328,2.355006 -3.065355,5.261768 -2.127401,8.720619 0.937954,3.457193 3.507955,7.285984 7.707018,11.485378 0.06503,0.06503 0.03251,0.19907 -0.09854,0.395155 -0.131055,0.195421 -0.492036,0.588917 -1.081285,1.179825 l -1.328465,1.326473 c -0.820502,0.821167 -1.656931,1.524549 -2.508289,2.116784 -0.853018,0.589249 -1.706367,0.999998 -2.558057,1.229261 -0.853018,0.230258 -1.712007,0.220969 -2.582277,-0.02422 -0.86828,-0.245189 -1.711012,-0.777703 -2.530187,-1.596546 -1.213999,-1.214331 -1.959187,-2.434302 -2.238217,-3.66124 -0.279363,-1.229261 -0.04181,-2.221296 0.712672,-2.974115 0.359323,-0.360981 0.826807,-0.597211 1.399135,-0.712672 0.572328,-0.114466 1.039812,-0.351692 1.400793,-0.711346 0.458194,-0.457862 0.6712,-1.130721 0.638685,-2.013267 -0.03252,-0.883873 -0.374916,-1.653613 -1.028863,-2.30756 -0.882547,-0.882546 -1.749499,-1.274383 -2.601189,-1.174184 -0.851359,0.09854 -1.622757,0.493695 -2.310878,1.183142 -0.819175,0.819176 -1.369937,1.826805 -1.650627,3.023883 -0.279362,1.195418 -0.288652,2.448236 -0.02754,3.759447 0.260451,1.309885 0.758791,2.64399 1.494688,4.00331 0.735898,1.35932 1.676838,2.610147 2.823153,3.756462 2.617778,2.617778 5.285324,4.072652 8.003301,4.364622 2.718309,0.292966 5.487381,-0.970469 8.309206,-3.790635 l 9.836078,-9.83641 z"
               id="path22"
               fill="#324ea9" />
            <path
               d="m 65.68898,74.67768 c -2.072657,-2.553412 -3.292628,-4.800255 -3.628725,-6.685122 -0.334107,-1.870268 0.07598,-3.351685 1.252485,-4.528524 0.838419,-0.839082 1.711676,-1.318843 2.6702,-1.467814 0.838419,-0.130059 1.691105,0.251161 2.607162,1.167217 0.668213,0.668878 1.25514,1.52654 1.744522,2.549763 0.476442,0.994357 0.765426,2.044786 0.860316,3.123417 -0.0056,0.253484 -0.05773,0.394492 -0.102521,0.439283 l -5.362962,5.361634 c -0.01393,0.0136 -0.02721,0.02721 -0.04048,0.04015 z m 0.623422,-14.698045 c -0.210683,0 -0.422361,0.01626 -0.635035,0.04944 -1.371928,0.212674 -2.641335,0.895154 -3.772387,2.027866 -1.647641,1.647641 -2.255138,3.762434 -1.804575,6.285322 0.426674,2.391833 1.896147,5.052411 4.492027,8.132697 l 0.05806,0.06304 c 0.41838,0.417384 0.962506,0.543794 1.455537,0.336097 0.2286,-0.100199 0.472793,-0.270404 1.031518,-0.829461 l 5.361966,-5.360307 c 0.453217,-0.452554 0.684139,-1.08593 0.686794,-1.881217 v -0.04247 l -0.0033,-0.0428 C 73.072176,67.380748 72.71783,66.080817 72.13024,64.85421 71.543977,63.62694 70.825996,62.584806 69.997531,61.756008 68.81671,60.575188 67.579818,59.979635 66.312402,59.979635 Z m -3.168185,18.263754 c -0.002,-0.002 -0.004,-0.003 -0.005,-0.005 10e-4,0.001 0.003,0.004 0.005,0.005 z m 19.264065,-2.82947 c -0.001,-0.001 -0.004,-0.001 -0.006,-0.002 0.002,0.001 0.004,0.001 0.006,0.002 z m -27.37721,9.531158 c 0.502985,0 1.003316,-0.06669 1.498338,-0.200066 0.955539,-0.257464 1.919041,-0.718645 2.863962,-1.371264 0.906435,-0.63039 1.795949,-1.380887 2.646976,-2.232245 l 1.327469,-1.32581 c 0.843395,-0.845718 1.082612,-1.146979 1.205372,-1.330455 0.605838,-0.906435 0.133709,-1.494689 -0.02555,-1.653613 -4.0554,-4.055732 -6.562362,-7.771052 -7.449553,-11.041118 -0.845055,-3.117114 -0.233577,-5.653937 1.870268,-7.756122 1.634701,-1.635033 3.274047,-2.43032 5.008947,-2.43032 0.01659,0 0.03251,0 0.04877,3.32e-4 1.732577,0.0146 3.457524,0.868279 5.127062,2.537486 1.598537,1.598537 2.706033,3.1629 3.291633,4.650289 0.594889,1.506964 0.94459,3.025209 1.038816,4.514257 0.01294,0.618446 0.341406,0.927337 0.538818,1.057065 0.194757,0.128069 0.601193,0.306237 1.154609,0.08295 0.866953,-0.302587 1.784005,-0.381884 2.802582,-0.240212 0.969142,0.137027 1.829459,0.591572 2.627732,1.390508 1.411411,1.411079 2.060049,3.196742 1.97478,5.445244 -0.111479,-0.38122 -0.219641,-0.679494 -0.331452,-0.914729 -0.20073,-0.421698 -0.513271,-0.841737 -0.956203,-1.284337 -1.203713,-1.203382 -2.38951,-1.01526 -2.989376,-0.795619 -0.816189,0.298606 -1.827468,1.057728 -3.090903,2.321495 l -9.836077,9.836409 c -2.5846,2.583273 -5.107488,3.760444 -7.498657,3.504638 -2.473784,-0.265428 -4.965484,-1.637688 -7.406422,-4.078625 -1.074317,-1.074317 -1.966485,-2.260778 -2.65162,-3.526535 -0.685134,-1.265425 -1.153946,-2.518243 -1.393826,-3.723947 -0.231585,-1.164563 -0.224617,-2.287985 0.02057,-3.339077 0.239548,-1.019905 0.692766,-1.853348 1.385199,-2.546113 0.531187,-0.53185 1.094225,-0.82548 1.721629,-0.89814 0.530855,-0.06503 1.130389,0.23623 1.782677,0.889182 0.473788,0.473456 0.714996,1.009951 0.738221,1.640341 0.0219,0.592235 -0.09522,1.020569 -0.347711,1.272725 -0.219973,0.219641 -0.512274,0.363304 -0.892168,0.439614 -0.770734,0.154943 -1.412737,0.487059 -1.90975,0.986727 -0.691438,0.689447 -1.425014,1.92833 -0.977768,3.896475 0.320835,1.408424 1.163567,2.802582 2.505303,4.144317 0.937622,0.937623 1.934966,1.560382 2.963497,1.850693 0.538155,0.151957 1.077304,0.227604 1.613799,0.227604 z M 63.9783,53.613358 c -2.25912,0 -4.417708,1.013269 -6.417372,3.013265 -2.615788,2.613465 -3.418042,5.872251 -2.384202,9.684784 0.939945,3.463828 3.444916,7.298923 7.449553,11.407408 -0.14499,0.157597 -0.356337,0.378898 -0.666555,0.68978 l -1.326805,1.324814 c -0.768413,0.769076 -1.566686,1.44293 -2.373254,2.003977 -0.754809,0.521565 -1.512604,0.887192 -2.248502,1.085599 -0.679826,0.182813 -1.351689,0.176509 -2.053413,-0.02157 -0.696747,-0.196417 -1.40212,-0.648307 -2.096545,-1.3424 -1.072327,-1.072326 -1.735564,-2.141667 -1.971462,-3.178161 -0.266423,-1.172194 0.126409,-1.730256 0.445254,-2.048105 0.219973,-0.2213 0.51128,-0.364963 0.892832,-0.442268 0.763435,-0.152289 1.405438,-0.482747 1.906432,-0.981418 0.661246,-0.660915 0.973787,-1.587588 0.930987,-2.755137 -0.04214,-1.140675 -0.486064,-2.141336 -1.32017,-2.97511 -1.10451,-1.104842 -2.256465,-1.595551 -3.420696,-1.458524 -1.074649,0.124419 -2.050759,0.618446 -2.899131,1.468477 -0.948571,0.948572 -1.593228,2.125742 -1.915391,3.49933 -0.31055,1.330123 -0.322162,2.736225 -0.03484,4.181145 0.278699,1.401125 0.815857,2.842396 1.595882,4.283004 0.776707,1.434967 1.784004,2.776039 2.994354,3.98672 2.77073,2.770067 5.664553,4.334762 8.601176,4.649957 3.020564,0.327471 6.087247,-1.046116 9.119092,-4.07597 l 9.836409,-9.836409 c 1.363302,-1.363634 2.068012,-1.750494 2.366949,-1.859651 0.144327,-0.05242 0.413072,-0.150962 0.89814,0.334106 0.343397,0.342734 0.497013,0.586595 0.565361,0.730589 0.0783,0.164897 0.210351,0.522892 0.395155,1.291305 0.11347,0.522892 0.498672,0.918379 1.035167,1.060714 0.315195,0.08693 0.651293,0.101858 0.990376,0.04346 0.321167,-0.05308 0.636031,-0.174518 0.927337,-0.358327 0.453881,-0.292302 0.714995,-0.745851 0.730258,-1.255804 0.269077,-3.087253 -0.577305,-5.635356 -2.515589,-7.573972 -1.099201,-1.099533 -2.363963,-1.757129 -3.759448,-1.954209 -0.997675,-0.138022 -1.957196,-0.108494 -2.863962,0.08693 -0.169542,-1.417051 -0.536495,-2.846377 -1.094888,-4.259778 -0.68613,-1.7422 -1.943261,-3.535162 -3.736223,-5.327461 -2.051755,-2.052086 -4.244517,-3.101852 -6.517903,-3.120763 -0.02123,0 -0.0428,-3.32e-4 -0.06437,-3.32e-4 z"
               id="path24"
               fill="#25529b" />
            <path
               d="m 111.76984,99.840534 c -0.5564,-0.493695 -1.12176,-0.99469 -1.69077,-1.503979 -0.57233,-0.510947 -1.15229,-1.06005 -1.7432,-1.650958 -0.6556,-0.655938 -1.27903,-1.323156 -1.87126,-2.01194 -0.5939,-0.684471 -1.16755,-1.306567 -1.72329,-1.861974 -0.23026,-0.229926 -0.47677,-0.311545 -0.73922,-0.246847 -0.26045,0.06669 -0.47478,0.149634 -0.63868,0.246847 -1.64134,1.117118 -3.36264,1.970135 -5.166214,2.561043 -1.803248,0.592567 -3.557391,0.955207 -5.263426,1.087257 -1.706699,0.131719 -3.272057,0.01 -4.697734,-0.366621 -1.427005,-0.375248 -2.58095,-1.005639 -3.464824,-1.890176 l 3.838081,-3.838412 c 0.951889,-0.953217 1.755803,-1.724283 2.412736,-2.315191 0.655605,-0.589249 1.269738,-0.991703 1.845384,-1.204709 0.571996,-0.214664 1.172194,-0.239216 1.795617,-0.07532 0.621432,0.162906 1.375909,0.554744 2.261773,1.178166 0.228268,0.163238 0.473456,0.213337 0.735566,0.147644 0.2641,-0.06603 0.476442,-0.183145 0.640344,-0.346714 0.163238,-0.163238 0.271399,-0.368613 0.319176,-0.61347 0.05076,-0.24552 -0.02323,-0.467815 -0.218977,-0.663568 -0.917716,-0.918379 -1.81287,-1.69575 -2.681481,-2.332776 -0.86828,-0.635698 -1.793958,-1.445252 -2.773385,-2.425011 -1.045784,-1.045784 -2.017912,-2.134037 -2.917711,-3.266085 -0.899136,-1.130721 -1.872591,-2.221296 -2.919702,-3.269071 -0.163902,-0.163237 -0.370603,-0.221632 -0.615792,-0.172528 -0.24552,0.04944 -0.450231,0.155607 -0.613801,0.319509 -0.196416,0.195752 -0.317849,0.416057 -0.368944,0.662905 -0.04778,0.244193 0.0093,0.484737 0.172528,0.714663 0.819175,1.014928 1.385863,1.872923 1.697076,2.577964 0.311878,0.703051 0.410418,1.343395 0.294625,1.917382 -0.115461,0.572328 -0.408758,1.130721 -0.883873,1.670534 -0.475116,0.539813 -1.088917,1.186792 -1.842067,1.940938 L 65.640207,104.11657 c -1.408424,1.41008 -2.562702,2.49767 -3.464823,3.26774 -0.899468,0.76941 -1.726274,1.23557 -2.479093,1.39914 -0.752818,0.16357 -1.508955,0.0325 -2.261773,-0.39317 -0.752819,-0.42601 -1.703049,-1.11413 -2.849364,-2.06436 -0.164897,-0.16357 -0.368612,-0.20504 -0.614133,-0.12475 -0.245188,0.0816 -0.456535,0.19575 -0.635367,0.34074 -0.179163,0.14798 -0.308559,0.34406 -0.39051,0.58793 -0.08162,0.24518 -0.02289,0.46582 0.17286,0.66157 1.115459,1.24519 2.317182,2.64598 3.610145,4.20072 1.292632,1.55508 2.364959,3.11778 3.211672,4.68679 0.327139,0.58958 0.654279,0.86529 0.981086,0.83311 0.32714,-0.0325 0.606502,-0.13105 0.836429,-0.29462 L 82.665387,96.309021 c 0.229927,1.015592 0.376244,2.047442 0.441273,3.094553 0.06636,1.047776 0.06636,2.064366 0.0013,3.047106 -0.06636,0.98241 -0.147975,1.91606 -0.246847,2.80159 -0.09721,0.88553 -0.178832,1.65527 -0.24353,2.31088 -0.197411,1.50729 -0.524551,2.40676 -0.984404,2.70271 -0.457862,0.29628 -1.244855,-0.0491 -2.358654,-1.03351 -0.16357,-0.16357 -0.376244,-0.213 -0.637026,-0.14797 -0.262442,0.0647 -0.473788,0.17883 -0.635699,0.3424 -0.195753,0.19608 -0.317849,0.41506 -0.367285,0.66025 -0.04778,0.24353 0.01095,0.4489 0.174186,0.61247 0.524552,0.52455 0.990708,0.95786 1.402453,1.30226 0.40909,0.34372 0.794623,0.64631 1.155605,0.90676 0.360981,0.26078 0.7067,0.52323 1.033508,0.78534 0.328798,0.26211 0.689779,0.58925 1.082944,0.98274 0.752818,0.75282 1.464164,1.58129 2.135363,2.48341 0.669209,0.90278 1.381882,1.73125 2.13636,2.48572 0.129727,0.1294 0.317849,0.17087 0.56171,0.12343 0.245189,-0.0498 0.465494,-0.16988 0.661578,-0.36563 0.16357,-0.16224 0.276377,-0.35965 0.341075,-0.58626 0.0647,-0.22993 0.03218,-0.44127 -0.09887,-0.63869 -0.590908,-0.72063 -1.033176,-1.36064 -1.328133,-1.91605 -0.294624,-0.55673 -0.505971,-1.13105 -0.638684,-1.72163 -0.131055,-0.58925 -0.203384,-1.20338 -0.220637,-1.84372 -0.01692,-0.63869 -0.04015,-1.39914 -0.07432,-2.28467 -0.03185,-0.55674 -0.06437,-1.30989 -0.09854,-2.25978 -0.03052,-0.95222 -0.08162,-1.96715 -0.146317,-3.04844 -0.06503,-1.08161 -0.139017,-2.12275 -0.220636,-3.12275 -0.08195,-0.99801 -0.171533,-1.84174 -0.270073,-2.529857 -0.03384,-0.229927 0.01692,-0.376576 0.146649,-0.442601 0.131055,-0.0647 0.246848,-0.0491 0.345388,0.0491 1.375909,1.245188 2.686125,2.113468 3.93098,2.604178 1.246182,0.49204 2.451223,0.74519 3.614126,0.76078 1.163568,0.0153 2.309883,-0.12973 3.440604,-0.44293 1.131053,-0.31022 2.285994,-0.64632 3.464816,-1.00763 1.18016,-0.36065 2.39416,-0.6556 3.63934,-0.8852 1.24486,-0.229929 2.57299,-0.263771 3.98175,-0.0992 0.39349,0.0637 0.81154,0.22097 1.25249,0.46616 0.44293,0.24552 0.8623,0.53218 1.25581,0.86097 0.19607,0.19576 0.42534,0.26046 0.68811,0.19576 0.26046,-0.0664 0.49038,-0.19576 0.6868,-0.39317 0.1649,-0.16357 0.27106,-0.36861 0.3205,-0.61413 0.0481,-0.24685 -0.0246,-0.46748 -0.22064,-0.663234"
               id="path26"
               fill="#324ea9" />
            <path
               d="m 97.644453,86.944129 c 0,-0.004 0.001,-0.007 0.002,-0.011 -10e-4,0.004 -0.002,0.007 -0.002,0.011 z M 86.502804,76.134877 c 0.01161,-0.02422 0.03119,-0.05375 0.06404,-0.08925 0.952221,0.963833 1.854011,1.979757 2.682476,3.021559 0.918047,1.155273 1.925013,2.282676 2.993026,3.350358 1.011279,1.011942 1.983407,1.860978 2.889178,2.524547 0.790642,0.579627 1.614131,1.291305 2.449232,2.117116 -0.02688,0.02157 -0.06404,0.04015 -0.109821,0.05541 -0.987058,-0.690112 -1.819173,-1.115127 -2.556066,-1.307894 -0.823489,-0.216323 -1.630388,-0.181154 -2.397142,0.105839 -0.694093,0.257465 -1.40212,0.714664 -2.160911,1.39648 -0.670204,0.602852 -1.49502,1.394158 -2.451886,2.352351 l -4.541132,4.541464 0.703383,0.704046 c 1.007297,1.007629 2.324813,1.730587 3.915718,2.148967 1.524549,0.402454 3.215654,0.535832 5.027196,0.396814 1.777037,-0.13769 3.626403,-0.519574 5.497998,-1.134371 1.871927,-0.613469 3.683137,-1.508955 5.382867,-2.661573 0.0352,-0.01891 0.0995,-0.04877 0.20306,-0.08295 0.51757,0.519906 1.05639,1.103846 1.61876,1.752153 0.59324,0.689447 1.22197,1.365956 1.91905,2.063366 0.59722,0.597544 1.19774,1.16589 1.78433,1.689446 0.51228,0.458858 1.02256,0.911411 1.52588,1.357995 -0.0256,0.0229 -0.0508,0.0418 -0.0773,0.0577 -0.41872,-0.34273 -0.86994,-0.648972 -1.34306,-0.911081 -0.54413,-0.302256 -1.07465,-0.497013 -1.57598,-0.577968 l -0.0431,-0.0056 c -1.50066,-0.175514 -2.93928,-0.138354 -4.27836,0.108825 -1.28201,0.236563 -2.54346,0.543131 -3.749498,0.912404 -1.172525,0.359 -2.329125,0.69509 -3.437285,0.99934 -1.0282,0.285 -2.093559,0.42236 -3.163895,0.40743 -1.038153,-0.0139 -2.135696,-0.24652 -3.262103,-0.69144 -1.122758,-0.44227 -2.33908,-1.25149 -3.615786,-2.404772 -0.401127,-0.382216 -0.960184,-0.46483 -1.46715,-0.214997 -0.20637,0.105508 -0.833442,0.506635 -0.690111,1.479758 0.09356,0.652621 0.182149,1.483411 0.262773,2.466821 0.08228,1.0063 0.155938,2.04976 0.218977,3.10052 0.06967,1.15859 0.11712,2.14665 0.145322,3.02123 0.03484,0.98108 0.06768,1.72727 0.09954,2.28467 0.03318,0.8623 0.0564,1.61877 0.07299,2.25414 0.01891,0.70438 0.100862,1.38852 0.243861,2.03284 0.153285,0.68215 0.398805,1.34439 0.730589,1.97146 0.304246,0.573 0.742865,1.21732 1.305903,1.91805 -0.01427,0.0226 -0.02853,0.0385 -0.04048,0.0501 -0.01095,0.0113 -0.02157,0.0209 -0.03152,0.0295 -0.641339,-0.66092 -1.255472,-1.3862 -1.828463,-2.15859 -0.700397,-0.94194 -1.450893,-1.8142 -2.230918,-2.59422 -0.415394,-0.41573 -0.807563,-0.7714 -1.16589,-1.05707 -0.333775,-0.26775 -0.695088,-0.54213 -1.071663,-0.8142 -0.341406,-0.24618 -0.71035,-0.53616 -1.097211,-0.86164 -0.342401,-0.286 -0.735897,-0.64831 -1.173853,-1.07996 0.008,-0.009 0.01725,-0.0192 0.02754,-0.0299 0.01261,-0.0126 0.02787,-0.0236 0.04479,-0.0332 0.691439,0.60319 2.189777,1.80259 3.423019,1.00465 0.742865,-0.47844 1.18447,-1.53019 1.430986,-3.40909 0.06768,-0.68414 0.149303,-1.45023 0.245852,-2.33178 0.09887,-0.88487 0.183145,-1.84207 0.250497,-2.84306 0.06802,-1.02588 0.06735,-2.09422 -9.95e-4,-3.176834 -0.06802,-1.099202 -0.224287,-2.193427 -0.464167,-3.251818 L 83.237383,94.329264 61.129268,116.43771 c -0.03816,0.0206 -0.08129,0.0378 -0.129064,0.0514 -0.04579,-0.0574 -0.110484,-0.14964 -0.190113,-0.29297 -0.865957,-1.60484 -1.983738,-3.23655 -3.316516,-4.84007 -1.283341,-1.54346 -2.427334,-2.87723 -3.492693,-4.07066 0.03152,-0.0229 0.06669,-0.0445 0.104844,-0.0647 1.130057,0.92834 2.059717,1.59522 2.838746,2.03583 0.969474,0.54811 1.966154,0.71599 2.963166,0.49967 0.92601,-0.20139 1.879558,-0.72993 2.914725,-1.61579 0.922361,-0.78666 2.107494,-1.90411 3.522222,-3.32017 L 85.652441,85.513756 c 0.765427,-0.766422 1.399467,-1.434968 1.885199,-1.987057 0.587258,-0.667218 0.961842,-1.384204 1.112473,-2.13105 0.156933,-0.778366 0.03583,-1.62508 -0.36065,-2.518243 -0.341074,-0.772394 -0.92601,-1.670534 -1.786659,-2.742529 z m 0.156271,-2.141336 c -0.118447,-3.32e-4 -0.239548,0.01228 -0.362308,0.03683 -0.44061,0.08825 -0.818512,0.287657 -1.122427,0.592235 -0.33278,0.331784 -0.548108,0.724617 -0.639016,1.165226 -0.103185,0.525215 0.0136,1.037822 0.335765,1.491703 l 0.03716,0.04877 c 0.763436,0.946249 1.28865,1.73855 1.561045,2.355005 0.226277,0.509952 0.303251,0.952884 0.229263,1.318511 -0.08062,0.400463 -0.30126,0.807563 -0.655274,1.209685 -0.458526,0.520902 -1.0637,1.158591 -1.799266,1.895484 l -19.307524,19.30586 c -1.3779,1.37956 -2.523883,2.46052 -3.407425,3.214 -0.768744,0.65826 -1.456201,1.05607 -2.044455,1.18381 -0.511611,0.11114 -1.022227,0.0176 -1.56005,-0.28666 -0.694756,-0.3935 -1.595551,-1.04678 -2.677499,-1.94227 -0.42767,-0.39781 -1.002652,-0.51725 -1.584934,-0.32681 -0.361313,0.12011 -0.680158,0.2923 -0.953216,0.5136 -0.330126,0.27306 -0.565692,0.62243 -0.707364,1.04479 -0.198407,0.59589 -0.05607,1.19808 0.390178,1.65892 1.084603,1.21102 2.252816,2.57067 3.570995,4.15627 1.248504,1.50232 2.291966,3.02421 3.101188,4.52321 0.540808,0.97478 1.196746,1.42634 1.954541,1.3507 0.499999,-0.0494 0.942267,-0.2087 1.314861,-0.47313 l 0.128069,-0.10816 19.551385,-19.55205 c 0.04413,0.363636 0.07764,0.729262 0.100531,1.096216 0.06304,0.998674 0.0637,1.980424 0.0013,2.919704 -0.06536,0.97113 -0.14698,1.89913 -0.242534,2.75713 -0.09788,0.89117 -0.180159,1.66456 -0.244857,2.32348 -0.156602,1.1921 -0.366953,1.68646 -0.476774,1.87392 -0.172528,-0.066 -0.544458,-0.26145 -1.1994,-0.83776 -0.406768,-0.38852 -0.971133,-0.52886 -1.553746,-0.38321 -0.439282,0.10816 -0.810881,0.31288 -1.102851,0.60783 -0.331784,0.33245 -0.546781,0.72495 -0.635367,1.16357 -0.113139,0.57764 0.04579,1.11247 0.445586,1.51293 0.554744,0.55475 1.034835,1.00034 1.468478,1.36264 0.422029,0.35501 0.830456,0.67552 1.211012,0.95023 0.349369,0.25216 0.683476,0.50597 0.993363,0.75448 0.302587,0.24121 0.638684,0.54678 1.001988,0.91008 0.711678,0.71201 1.398139,1.51029 2.040474,2.37392 0.692433,0.93397 1.443593,1.80756 2.231249,2.59522 0.214001,0.21334 0.687125,0.54645 1.456201,0.39648 0.447577,-0.0902 0.840742,-0.30458 1.174517,-0.63835 0.280689,-0.27804 0.482082,-0.62177 0.594557,-1.01825 0.145654,-0.51426 0.06702,-1.01924 -0.22694,-1.46151 l -0.05939,-0.0806 c -0.543462,-0.66257 -0.953548,-1.25182 -1.218643,-1.75149 -0.248507,-0.46981 -0.432647,-0.96582 -0.547113,-1.47312 -0.114465,-0.51759 -0.180822,-1.07432 -0.196416,-1.65163 -0.01692,-0.642 -0.04015,-1.40676 -0.07465,-2.29694 -0.03218,-0.56171 -0.06404,-1.29363 -0.09821,-2.25679 -0.02886,-0.88952 -0.0773,-1.89549 -0.147644,-3.07266 -0.06403,-1.06536 -0.139017,-2.12309 -0.222295,-3.14399 -0.02886,-0.3487 -0.05806,-0.67617 -0.08792,-0.98407 0.988054,0.74519 1.953546,1.30524 2.883869,1.67186 1.350694,0.53351 2.685462,0.81287 3.965818,0.82979 1.260449,0.0186 2.511939,-0.14432 3.719634,-0.47876 1.124749,-0.30856 2.299929,-0.6503 3.490706,-1.01493 1.13338,-0.34671 2.3205,-0.63537 3.5282,-0.85832 1.13702,-0.21036 2.3686,-0.24121 3.6619,-0.0922 0.26808,0.0464 0.57365,0.16423 0.90842,0.35036 0.37923,0.21035 0.74021,0.45621 1.07366,0.73225 0.43928,0.41639 1.00199,0.56702 1.59157,0.42137 0.44724,-0.11414 0.83278,-0.33477 1.15427,-0.65793 0.30126,-0.29827 0.50133,-0.67618 0.59091,-1.11878 0.11314,-0.58195 -0.0627,-1.135364 -0.49336,-1.565024 l -0.15693,-0.141672 c -0.51858,-0.460185 -1.04413,-0.926342 -1.57333,-1.399798 -0.55938,-0.499668 -1.13238,-1.041803 -1.70304,-1.612804 -0.66125,-0.661909 -1.2568,-1.302253 -1.8205,-1.957195 -0.63205,-0.728599 -1.21168,-1.354676 -1.77406,-1.91705 -0.47843,-0.47777 -1.07664,-0.659256 -1.68148,-0.508957 -0.36032,0.09224 -0.66357,0.21201 -0.90842,0.357331 l -0.0514,0.03285 c -1.55507,1.05806 -3.209023,1.878563 -4.916384,2.437951 -1.720634,0.565692 -3.413066,0.915393 -5.030514,1.040808 -1.587588,0.121764 -3.056729,0.0093 -4.366613,-0.336762 -0.862971,-0.226608 -1.614463,-0.55972 -2.245517,-0.993694 l 3.068342,-3.068673 c 0.932314,-0.933641 1.73125,-1.700394 2.37458,-2.279026 0.560384,-0.503317 1.073986,-0.844059 1.525544,-1.011279 0.38122,-0.142667 0.771399,-0.157265 1.196746,-0.04579 0.348705,0.09124 0.967483,0.343729 1.942265,1.029195 0.462508,0.331784 1.001325,0.43696 1.549101,0.299601 0.437292,-0.109488 0.807895,-0.313868 1.10252,-0.607828 0.303582,-0.303915 0.508625,-0.69343 0.59323,-1.128399 C 99.713798,86.760328 99.53994,86.20293 99.104642,85.767961 98.158719,84.82099 97.217447,84.00281 96.308358,83.336255 95.483874,82.732408 94.589715,81.95006 93.650102,81.010115 92.635174,79.995519 91.679303,78.925183 90.807706,77.828636 89.885677,76.669381 88.878048,75.541315 87.812357,74.47496 87.49484,74.158769 87.094376,73.993541 86.659075,73.993541 Z"
               id="path28"
               fill="#25529b" />
            <path
               d="m 109.98119,128.01864 c 0.45819,0.4582 0.55541,0.88222 0.29263,1.27737 -0.26343,0.39317 -0.62309,0.81918 -1.08261,1.27737 -0.68812,0.68945 -1.45819,1.24486 -2.30955,1.67219 -0.85169,0.42734 -1.71864,0.68978 -2.60318,0.78998 -0.88321,0.1002 -1.75083,0.0182 -2.60053,-0.24253 -0.85003,-0.25912 -1.63536,-0.7495 -2.353009,-1.46682 -0.881883,-0.88255 -1.486394,-1.79728 -1.812206,-2.74618 -0.32548,-0.95023 -0.456867,-1.89913 -0.390178,-2.84604 0.06735,-0.94891 0.329793,-1.88255 0.791305,-2.80026 0.457862,-0.91639 1.018578,-1.80027 1.672525,-2.65162 0.330457,-0.45986 0.623423,-0.80392 0.886863,-1.03384 0.26078,-0.2296 0.4552,-0.28235 0.58128,-0.15594 z m -7.28632,-10.70634 c -0.15428,-0.15428 -0.18347,-0.29761 -0.0836,-0.429 0.0992,-0.12807 0.22993,-0.27605 0.39317,-0.43962 1.70504,-1.70305 3.3341,-2.95719 4.89083,-3.75944 1.5564,-0.80226 3.03915,-1.23756 4.44856,-1.30226 1.40876,-0.066 2.74287,0.20372 4.00531,0.80989 1.26244,0.60617 2.43264,1.45023 3.51425,2.53184 1.11381,1.1138 2.10551,2.286 2.97445,3.51426 0.86695,1.22794 1.36795,2.53152 1.49734,3.90743 0.0345,0.29462 0.15627,0.51692 0.36895,0.66489 0.21101,0.14665 0.44326,0.21135 0.68812,0.19443 0.24552,-0.0153 0.46781,-0.0909 0.66489,-0.22031 0.19576,-0.13105 0.31022,-0.31187 0.34274,-0.5418 0.32647,-2.42335 0.0972,-4.55075 -0.69011,-6.38519 -0.78799,-1.83576 -2.14764,-3.71764 -4.07996,-5.65095 -1.96681,-1.96682 -3.95885,-3.36761 -5.97344,-4.20205 -2.01658,-0.83775 -4.02156,-1.18944 -6.02122,-1.06005 -1.99933,0.12973 -3.93364,0.68646 -5.80191,1.66755 -1.86994,0.98275 -3.63769,2.30955 -5.30988,3.98042 -1.606168,1.60583 -2.858985,3.39846 -3.760775,5.38087 -0.901458,1.98208 -1.385531,3.98938 -1.45222,6.01791 -0.06768,2.03052 0.259124,4.02952 0.978432,5.99202 0.720635,1.96549 1.89847,3.76575 3.534166,5.40079 1.374583,1.37458 2.864957,2.38984 4.467477,3.04379 1.60451,0.65262 3.21797,0.95487 4.83941,0.90577 1.6201,-0.0511 3.23357,-0.43696 4.8394,-1.15859 1.6065,-0.72197 3.08128,-1.75415 4.42468,-3.09787 0.68812,-0.68812 0.78666,-1.2787 0.29595,-1.76941 l -13.995,-13.99532 z"
               id="path30"
               fill="#324ea9" />
            <path
               d="m 103.55552,132.08101 c -0.53517,0 -1.06569,-0.08 -1.58526,-0.23955 -0.69011,-0.21002 -1.3424,-0.6201 -1.94127,-1.21897 -0.770738,-0.7714 -1.300597,-1.56735 -1.574983,-2.36563 -0.281353,-0.82183 -0.395487,-1.64764 -0.338752,-2.45288 0.05806,-0.81519 0.289316,-1.63072 0.687789,-2.42302 0.423025,-0.84605 0.951558,-1.68413 1.572656,-2.49269 0.17452,-0.24254 0.3298,-0.44128 0.46782,-0.59954 l 8.43395,8.43363 c 0.0468,0.0471 0.08,0.0856 0.10319,0.11579 -0.2223,0.31486 -0.52256,0.66158 -0.89217,1.03019 -0.60683,0.60816 -1.29727,1.10816 -2.05341,1.48772 -0.74021,0.3716 -1.50365,0.60385 -2.26874,0.69044 -0.20372,0.0229 -0.40743,0.0345 -0.61082,0.0345 z m -2.65527,-14.0504 c -0.32647,0 -0.69873,0.13006 -1.085264,0.47113 -0.314199,0.27406 -0.654942,0.66755 -1.036826,1.1994 -0.679494,0.88388 -1.276374,1.83013 -1.754807,2.78765 -0.515924,1.02654 -0.817185,2.09522 -0.893495,3.17452 -0.07598,1.07332 0.07266,2.16257 0.441273,3.23921 0.373589,1.08792 1.063369,2.14 2.049764,3.12739 0.832778,0.83245 1.763435,1.40942 2.767085,1.71533 0.97776,0.30026 1.98904,0.39449 3.00298,0.27936 0.99833,-0.11314 1.98639,-0.4124 2.93728,-0.88951 0.94758,-0.47545 1.81154,-1.10086 2.56768,-1.85866 0.49735,-0.49601 0.90312,-0.97677 1.20504,-1.42601 0.20007,-0.30159 0.75448,-1.36463 -0.41572,-2.53582 h -3.4e-4 l -8.92665,-8.926 c -0.20405,-0.20438 -0.50398,-0.35799 -0.858,-0.35799 z m 5.89349,18.3125 c -1.37326,0 -2.76078,-0.28102 -4.12839,-0.83742 -1.4718,-0.60086 -2.86463,-1.55143 -4.138682,-2.82548 -1.524881,-1.52488 -2.636358,-3.2203 -3.303577,-5.0398 -0.671863,-1.83344 -0.981086,-3.72328 -0.918047,-5.61611 0.06204,-1.88918 0.520902,-3.78633 1.363302,-5.63901 0.848704,-1.8643 2.045782,-3.57663 3.55905,-5.08924 1.595554,-1.59456 3.300924,-2.87392 5.069004,-3.80291 1.73722,-0.91241 3.5554,-1.43563 5.4031,-1.55541 1.83776,-0.11911 3.714,0.21268 5.57498,0.98573 1.88586,0.78136 3.78731,2.12243 5.65161,3.98673 1.83377,1.83476 3.13569,3.63138 3.86894,5.33973 0.69873,1.62807 0.91174,3.55938 0.63371,5.74319 -0.0299,0.01 -0.0624,0.0159 -0.0989,0.0182 -0.003,3.3e-4 -0.005,3.3e-4 -0.008,6.6e-4 -0.14565,-1.51493 -0.70902,-2.9854 -1.67153,-4.34803 -0.8998,-1.27173 -1.93695,-2.49768 -3.0836,-3.64399 -1.15726,-1.1576 -2.43165,-2.07432 -3.78699,-2.72528 -1.40643,-0.67551 -2.91738,-0.98141 -4.48307,-0.90676 -1.54312,0.0707 -3.17816,0.54545 -4.85765,1.41141 -1.63636,0.84339 -3.36529,2.16887 -5.13834,3.93994 -0.1868,0.18745 -0.34738,0.36728 -0.47711,0.53516 -0.34107,0.44758 -0.41838,1.15561 0.16689,1.74121 l 13.99002,13.99035 c -0.0322,0.0637 -0.10916,0.1858 -0.29065,0.36728 -1.25049,1.25083 -2.63934,2.22428 -4.12905,2.89349 -1.47844,0.66457 -2.97976,1.02522 -4.4625,1.07167 -0.1012,0.003 -0.20305,0.005 -0.30491,0.005 z m 3.63868,-32.41997 c -0.28766,0 -0.57465,0.009 -0.86165,0.0279 -2.12839,0.13802 -4.21432,0.73689 -6.20005,1.77969 -1.94558,1.02256 -3.813198,2.42136 -5.550753,4.15759 -1.682478,1.68181 -3.015919,3.59024 -3.963495,5.67252 -0.951889,2.09322 -1.470468,4.24551 -1.541138,6.39746 -0.07133,2.14963 0.278035,4.29196 1.038817,6.36727 0.767417,2.0929 2.033837,4.03185 3.765088,5.76243 1.462173,1.46218 3.075641,2.55939 4.794951,3.26144 1.72859,0.70305 3.49601,1.03218 5.24584,0.97877 1.74518,-0.0548 3.50065,-0.47379 5.21731,-1.24552 1.71068,-0.76875 3.29893,-1.87956 4.72062,-3.30192 1.28003,-1.28002 0.99237,-2.48042 0.29595,-3.17683 L 103.82327,117.0333 c 1.58527,-1.56735 3.10849,-2.73291 4.52786,-3.4645 1.42369,-0.73357 2.78201,-1.1347 4.03815,-1.1921 1.25348,-0.0587 2.40743,0.17419 3.52886,0.71234 1.15262,0.55375 2.24319,1.34041 3.24153,2.33842 1.06702,1.06702 2.03118,2.20603 2.86529,3.38553 0.76277,1.07995 1.20703,2.2329 1.31951,3.426 0.0879,0.7568 0.4781,1.17054 0.79064,1.38819 0.39615,0.27505 0.85103,0.40278 1.32548,0.3706 0.41008,-0.0255 0.79694,-0.15428 1.14299,-0.38155 0.44161,-0.29595 0.70969,-0.72097 0.78202,-1.2349 0.35003,-2.5992 0.0939,-4.92435 -0.76111,-6.91638 -0.83345,-1.9416 -2.27737,-3.94757 -4.29064,-5.96216 -2.05043,-2.0501 -4.16854,-3.53649 -6.29627,-4.41804 -1.85832,-0.77173 -3.7402,-1.16158 -5.60516,-1.16158 z"
               id="path32"
               fill="#25529b" />
            <path
               d="m 133.42971,134.86899 c 0.82017,-0.8205 1.53152,-1.48374 2.13935,-1.99269 0.60484,-0.50797 1.23556,-0.79463 1.8915,-0.86098 0.65561,-0.0647 1.39316,0.11413 2.21234,0.53981 0.81884,0.42734 1.86794,1.18016 3.14531,2.25978 0.2296,0.16523 0.46782,0.22396 0.71102,0.17452 0.24386,-0.0478 0.46582,-0.1712 0.66025,-0.36397 0.16357,-0.16357 0.26874,-0.36861 0.31785,-0.61247 0.0481,-0.24386 -0.0262,-0.46583 -0.22363,-0.66357 -1.40842,-1.40842 -2.712,-2.59455 -3.90742,-3.55872 -1.19741,-0.96416 -2.28632,-1.93762 -3.26608,-2.91738 -1.04579,-1.04578 -2.02687,-2.14266 -2.94194,-3.2903 -0.91472,-1.14632 -1.89614,-2.24485 -2.94491,-3.29362 -0.1639,-0.16391 -0.36862,-0.22097 -0.61414,-0.17452 -0.24352,0.0494 -0.44724,0.1556 -0.61081,0.31917 -0.19443,0.1931 -0.31785,0.41507 -0.36563,0.65893 -0.0478,0.24519 0.009,0.48109 0.17452,0.71101 0.81885,1.01692 1.38222,1.87757 1.69509,2.58095 0.30988,0.70338 0.40842,1.34373 0.29462,1.91606 -0.11413,0.57398 -0.40079,1.14034 -0.85932,1.69541 -0.45952,0.55707 -1.06602,1.21267 -1.81851,1.96682 l -7.17517,7.17384 c -1.60616,1.60584 -2.90808,2.84306 -3.90775,3.71167 -0.99834,0.86861 -1.87425,1.43298 -2.62873,1.69542 -0.75282,0.26045 -1.47478,0.21135 -2.16157,-0.14798 -0.68912,-0.36297 -1.52389,-0.96881 -2.5063,-1.8205 -0.1639,-0.16323 -0.37027,-0.20371 -0.61579,-0.12176 -0.24552,0.0816 -0.44891,0.20504 -0.61248,0.36861 -0.1639,0.16357 -0.28699,0.36861 -0.36894,0.6138 -0.0816,0.24519 -0.0245,0.46749 0.17153,0.66324 0.59058,0.72229 1.42568,1.70504 2.50564,2.94823 1.08095,1.24652 2.06237,2.63669 2.94458,4.17451 0.32714,0.58793 0.68646,0.98109 1.07863,1.17552 0.39317,0.19741 0.80226,0.0494 1.22794,-0.44095 l 3.04644,-3.24451 c 0.0664,-0.0647 0.12376,-0.0909 0.17286,-0.074 0.0478,0.0156 0.0727,0.0879 0.0713,0.21765 -0.69276,2.06867 -0.95056,4.01094 -0.77139,5.83277 0.17717,1.81884 1.10285,3.56535 2.77371,5.23588 1.37558,1.37625 2.74452,2.03782 4.1065,1.98872 1.36064,-0.0511 2.55175,-0.58626 3.56966,-1.60285 0.5584,-0.55839 0.85634,-1.28201 0.88885,-2.16755 0.0338,-0.88719 -0.34107,-1.72328 -1.12773,-2.50994 -0.75315,-0.75282 -1.45919,-1.09688 -2.11679,-1.0292 -0.65693,0.0664 -1.20006,0.31652 -1.62906,0.74386 -0.45952,0.46118 -0.91307,0.73291 -1.35567,0.81752 -0.44459,0.0833 -0.96118,-0.1712 -1.55076,-0.76045 -0.62342,-0.62343 -0.98274,-1.39317 -1.08161,-2.30955 -0.0969,-0.91772 -0.0474,-1.83543 0.1483,-2.75381 0.19741,-0.91772 0.49237,-1.77074 0.88388,-2.5564 0.39648,-0.78633 0.75613,-1.3434 1.0846,-1.67186 l 9.24583,-9.24418"
               id="path34"
               fill="#324ea9" />
            <path
               d="m 116.29041,149.50898 c 0,0 -10e-4,0 -0.002,-0.001 0.001,0.001 0.002,0.001 0.002,0.001 z m 27.13466,-15.48469 c -0.002,-0.001 -0.003,-0.002 -0.005,-0.004 0.002,0.001 0.004,0.002 0.006,0.003 z m -0.0866,-0.0113 c 0.002,0 0.003,0 0.005,-9.9e-4 -0.002,9.9e-4 -0.003,9.9e-4 -0.005,9.9e-4 z M 130.6268,121.23498 c 0.0103,-0.0206 0.0275,-0.0464 0.0561,-0.0773 0.95421,0.9655 1.8643,1.98972 2.70736,3.04612 0.93198,1.16887 1.94691,2.30391 3.01625,3.37325 1.00464,1.00497 2.13039,2.01061 3.34538,2.98904 1.1367,0.91672 2.38586,2.05142 3.71433,3.37392 -0.0302,0.0275 -0.0561,0.0441 -0.0766,0.0547 -1.31088,-1.10285 -2.37658,-1.86297 -3.25613,-2.32216 -0.98905,-0.51393 -1.9227,-0.73025 -2.77074,-0.64764 -0.85832,0.0866 -1.67617,0.45289 -2.43363,1.08892 -0.62973,0.52753 -1.3507,1.19873 -2.20338,2.05142 l -9.2455,9.24384 c -0.40412,0.40411 -0.81951,1.03484 -1.26974,1.928 -0.42867,0.86032 -0.75348,1.79927 -0.96815,2.79495 -0.21699,1.01792 -0.27239,2.04943 -0.1649,3.06768 0.12376,1.14698 0.58394,2.12475 1.36762,2.90875 0.83377,0.83378 1.65195,1.18248 2.43795,1.03517 0.64764,-0.12409 1.27803,-0.49171 1.87757,-1.09356 0.26377,-0.26311 0.59986,-0.41307 1.02388,-0.45587 0.33676,-0.0342 0.7996,0.22959 1.31287,0.74253 0.58593,0.58626 0.85999,1.16489 0.83676,1.76841 -0.0232,0.63172 -0.21897,1.12243 -0.59787,1.50132 -0.84207,0.84108 -1.79197,1.27041 -2.90311,1.31221 -1.07233,0.0388 -2.20073,-0.53251 -3.36529,-1.69774 -1.49701,-1.49668 -2.33377,-3.05374 -2.48706,-4.62872 -0.16423,-1.67054 0.0793,-3.49369 0.72462,-5.42003 l 0.0498,-0.1493 0.002,-0.15694 c 0.008,-0.85932 -0.57996,-1.11645 -0.76045,-1.17451 -0.39317,-0.13504 -0.83809,-0.0206 -1.17585,0.31021 l -0.0285,0.0295 -3.07299,3.27305 c -0.0554,0.064 -0.10053,0.10817 -0.13536,0.13803 -0.13139,-0.0982 -0.3235,-0.29728 -0.54977,-0.70405 -0.91506,-1.59489 -1.94326,-3.05241 -3.06237,-4.34272 -1.01294,-1.16623 -1.81917,-2.11347 -2.39913,-2.81884 0.0133,-0.0183 0.0275,-0.0352 0.0428,-0.0504 0.0159,-0.0156 0.0328,-0.0305 0.0521,-0.0441 0.97014,0.82714 1.79462,1.41539 2.51525,1.79462 0.92535,0.4844 1.94526,0.55574 2.95089,0.20803 0.88554,-0.3079 1.85236,-0.92435 2.9562,-1.8852 1.0063,-0.87425 2.33809,-2.13901 3.95819,-3.75845 l 7.17517,-7.17384 c 0.77471,-0.77671 1.40776,-1.46184 1.88254,-2.03782 0.56237,-0.68016 0.9217,-1.3988 1.06768,-2.13437 0.15428,-0.77439 0.0335,-1.61944 -0.35998,-2.51161 -0.3497,-0.78566 -0.93365,-1.68447 -1.78633,-2.7485 z m 0.14233,-2.13105 c -0.11313,0 -0.22859,0.0109 -0.34505,0.0328 -0.4499,0.0912 -0.82548,0.28998 -1.12906,0.59323 -0.33179,0.32913 -0.55375,0.73523 -0.63902,1.17219 -0.10119,0.51626 0.0176,1.02887 0.3424,1.48208 l 0.0338,0.0441 c 0.75614,0.93895 1.28135,1.73324 1.56072,2.36131 0.22362,0.50696 0.30059,0.95122 0.2276,1.31685 -0.0813,0.40942 -0.29993,0.83178 -0.6503,1.2558 -0.43563,0.5282 -1.02621,1.16656 -1.7558,1.89814 l -7.17417,7.17251 c -1.58759,1.58726 -2.8852,2.82017 -3.85699,3.66423 -0.89682,0.78036 -1.67153,1.28732 -2.30259,1.50663 -0.4927,0.17021 -0.92966,0.14234 -1.37292,-0.0896 -0.61314,-0.32249 -1.38619,-0.88586 -2.29595,-1.67352 -0.42999,-0.4071 -1.01161,-0.5282 -1.60218,-0.33145 -0.39118,0.13006 -0.72794,0.33543 -1.00199,0.60949 -0.27339,0.27272 -0.4781,0.61015 -0.60916,1.00198 -0.19575,0.58859 -0.0604,1.18315 0.37127,1.64101 0.59621,0.7276 1.43629,1.71599 2.49834,2.93861 1.0345,1.1931 1.98771,2.54479 2.83244,4.01725 0.42667,0.76609 0.91937,1.284 1.49999,1.57199 0.37857,0.18978 1.37757,0.50896 2.40776,-0.66456 l 0.85833,-0.91374 c -0.14167,1.05873 -0.16457,2.08593 -0.0674,3.07465 0.1994,2.04512 1.22893,4.01127 3.06071,5.84239 1.57133,1.57233 3.20337,2.33709 4.84604,2.27969 1.61512,-0.0607 3.04014,-0.69774 4.23722,-1.89349 0.74087,-0.74088 1.13802,-1.69476 1.18015,-2.83477 0.0445,-1.17053 -0.43264,-2.26476 -1.41871,-3.25049 -0.97279,-0.97279 -1.95255,-1.41506 -2.92269,-1.31552 -0.88321,0.0892 -1.6337,0.4353 -2.22925,1.02853 -0.31022,0.31154 -0.59954,0.499 -0.83975,0.54512 0.011,-0.003 -0.20902,-0.0355 -0.66058,-0.4864 -0.46052,-0.46118 -0.7213,-1.02123 -0.79562,-1.71267 -0.0853,-0.80723 -0.0408,-1.62873 0.13205,-2.43928 0.17883,-0.83145 0.44857,-1.61247 0.80093,-2.32016 0.43231,-0.85667 0.72727,-1.24121 0.89781,-1.41208 l 9.24616,-9.24384 c 0.79894,-0.79993 1.49701,-1.45023 2.07431,-1.93397 0.45322,-0.38023 0.89549,-0.58726 1.35302,-0.63338 0.45521,-0.0454 1.01327,0.1002 1.65262,0.43265 0.75182,0.3925 1.74917,1.11148 2.96217,2.13702 l 0.0604,0.0471 c 0.45753,0.32946 0.97379,0.44757 1.49171,0.34206 0.43065,-0.0839 0.82448,-0.29727 1.16224,-0.63238 0.30524,-0.30457 0.50364,-0.68115 0.59289,-1.12176 0.11314,-0.57764 -0.0627,-1.13138 -0.49502,-1.56403 -1.42136,-1.42136 -2.76243,-2.64266 -3.98672,-3.63038 -1.16058,-0.93464 -2.23291,-1.89217 -3.18745,-2.84638 -1.01659,-1.01692 -1.98142,-2.09621 -2.86728,-3.20703 -0.93696,-1.17451 -1.95288,-2.31054 -3.01957,-3.3769 -0.31685,-0.31652 -0.71931,-0.48175 -1.15793,-0.48175 z"
               id="path36"
               fill="#25529b" />
            <path
               d="m 144.31887,178.23917 c 0.26377,-0.46018 0.61546,-0.99369 1.05873,-1.59853 0.44392,-0.6075 0.95919,-1.20471 1.54877,-1.79396 0.62342,-0.62475 1.285,-1.25415 1.98938,-1.89283 0.7057,-0.63868 1.23921,-1.14034 1.59886,-1.49966 0.0989,-0.0985 0.11381,-0.24685 0.0491,-0.44261 -0.066,-0.19608 -0.17286,-0.3842 -0.31885,-0.56469 -0.1483,-0.17916 -0.31221,-0.31155 -0.49436,-0.39317 -0.17684,-0.082 -0.33443,-0.0912 -0.46416,-0.0249 -2.09821,1.37591 -4.02322,2.1211 -5.7757,2.23523 -1.75282,0.11579 -3.52952,-0.72827 -5.33178,-2.52985 -1.21234,-1.21268 -1.90975,-2.51626 -2.09057,-3.90776 -0.18016,-1.39283 0.23789,-2.59621 1.25448,-3.61147 0.85169,-0.85169 1.8341,-1.1785 2.94989,-0.98109 1.11513,0.19741 2.40942,0.64001 3.88619,1.33145 0.62143,0.29463 1.37691,0.64001 2.26078,1.03351 0.88586,0.39482 1.60783,0.70637 2.16655,0.93795 1.24486,0.45986 2.4499,0.84373 3.61446,1.15727 1.16456,0.31154 2.30457,0.45322 3.41837,0.4207 1.11513,-0.0322 2.18779,-0.25282 3.2213,-0.66158 1.03218,-0.40876 2.02388,-1.08759 2.97444,-2.03782 1.24353,-1.24485 2.02223,-2.5471 2.33411,-3.90775 0.30988,-1.36065 0.30988,-2.70438 -0.002,-4.03118 -0.31088,-1.32515 -0.87723,-2.62873 -1.69641,-3.9061 -0.8205,-1.2787 -1.73755,-2.42667 -2.75215,-3.44193 -0.85169,-0.85136 -1.89946,-1.70736 -3.13967,-2.5637 -1.24021,-0.85766 -2.43265,-1.49966 -3.57896,-1.92534 -0.26377,-0.13238 -0.43497,-0.37027 -0.51659,-0.71267 -0.0816,-0.34406 0.0242,-0.73126 0.31884,-1.15561 0.0979,-0.0972 0.0883,-0.2359 -0.0259,-0.41639 -0.11613,-0.17883 -0.25349,-0.35169 -0.41805,-0.51526 -0.13073,-0.13271 -0.28832,-0.23755 -0.47246,-0.31619 -0.18315,-0.079 -0.32648,-0.0647 -0.43132,0.0385 -0.25946,0.26078 -0.58461,0.65096 -0.97346,1.17087 -0.38885,0.52156 -0.78069,0.9781 -1.17617,1.37159 -0.39151,0.39317 -0.85136,0.80226 -1.37425,1.22794 -0.52422,0.42733 -1.04147,0.84372 -1.55209,1.25082 -0.50863,0.40743 -0.96251,0.77472 -1.357,1.1002 -0.39515,0.32382 -0.67452,0.56934 -0.83974,0.73291 -0.13106,0.13106 -0.16324,0.29462 -0.0972,0.49204 0.0654,0.19575 0.17153,0.38553 0.31951,0.56602 0.14831,0.18049 0.31951,0.31951 0.51825,0.41805 0.19442,0.0989 0.37657,0.0989 0.53981,0.002 1.17883,-0.72197 2.31088,-1.26012 3.3925,-1.62143 1.08327,-0.35932 2.13967,-0.51526 3.17384,-0.46417 1.03285,0.0491 2.0574,0.33643 3.07432,0.86231 1.01658,0.52588 2.06701,1.32946 3.14996,2.4124 1.18115,1.18182 1.81453,2.4718 1.89615,3.86463 0.0829,1.39482 -0.46483,2.68115 -1.64466,3.86163 -1.05043,1.04911 -2.24618,1.5073 -3.59123,1.37459 -1.3434,-0.13106 -2.73988,-0.46152 -4.1838,-0.98607 -0.65561,-0.26211 -1.31918,-0.53351 -1.99204,-0.81287 -0.67252,-0.27936 -1.35301,-0.56768 -2.04246,-0.86231 -1.01791,-0.42733 -2.03417,-0.83775 -3.05275,-1.23257 -1.01692,-0.39516 -2.02388,-0.63239 -3.02488,-0.716 -1.00132,-0.0816 -2.00895,0.0571 -3.02587,0.41805 -1.01659,0.35966 -2.03251,1.04745 -3.04943,2.06403 -1.18015,1.18016 -1.92534,2.43298 -2.23689,3.75978 -0.31187,1.32681 -0.31951,2.64565 -0.0246,3.95686 0.29263,1.30989 0.81785,2.57166 1.57067,3.78599 0.75248,1.21102 1.60517,2.2923 2.55573,3.24286 0.91639,0.91639 1.83444,1.6211 2.75215,2.11314 0.91639,0.49071 2.08162,0.88254 3.49104,1.17551 0.19542,0.0664 0.36131,0.24851 0.49037,0.54147 0.13172,0.29463 0.0339,0.73922 -0.29595,1.33012 -0.0972,0.16324 -0.082,0.34539 0.0498,0.54148 0.12973,0.19575 0.28633,0.36695 0.46715,0.51526 0.17884,0.14631 0.36861,0.25282 0.56437,0.31785 0.19575,0.066 0.32747,0.0338 0.39349,-0.0972"
               id="path38"
               fill="#324ea9" />
            <path
               d="m 144.24923,177.39579 c -0.002,-0.002 -0.005,-0.002 -0.007,-0.003 0.002,0.001 0.005,0.001 0.007,0.003 z m -0.52191,-0.43662 c -0.001,-0.001 -0.002,-0.003 -0.003,-0.005 0.001,0.002 0.002,0.004 0.003,0.005 z m -1.49635,-0.92035 c -0.001,-0.003 -0.002,-0.005 -0.003,-0.009 0.001,0.004 0.002,0.006 0.003,0.009 z m 7.10649,-5.07965 c -0.002,0 -0.003,-0.001 -0.004,-0.002 0.001,0.001 0.002,0.002 0.004,0.002 z m 0.47344,-0.20536 c 0.001,-0.002 0.002,-0.004 0.004,-0.005 -0.002,0.001 -0.002,0.003 -0.004,0.005 z m -4.43227,-22.74614 c -0.003,-0.002 -0.005,-0.003 -0.008,-0.004 0.003,0.001 0.005,0.002 0.008,0.004 z m -0.19878,-0.15695 c 0.11679,-0.10186 0.27107,-0.23291 0.47213,-0.39781 0.39383,-0.32449 0.84373,-0.68879 1.34838,-1.0929 0.51194,-0.40809 1.03151,-0.82681 1.55872,-1.25613 0.56702,-0.46185 1.04213,-0.88653 1.45122,-1.29761 0.42634,-0.42469 0.85401,-0.92303 1.26841,-1.47877 0.12376,-0.16556 0.23491,-0.30922 0.33411,-0.43397 -0.16257,0.42867 -0.19608,0.85103 -0.0982,1.2631 0.19078,0.79894 0.66987,1.18713 1.03815,1.37226 l 0.1002,0.0438 c 1.06171,0.39416 2.19177,1.00331 3.35965,1.81055 1.18514,0.81851 2.19509,1.64233 3.00199,2.4489 0.95719,0.95786 1.83808,2.05971 2.61777,3.2757 0.75515,1.17717 1.28169,2.38686 1.56536,3.59621 0.27505,1.17054 0.27505,2.37591 6.7e-4,3.58261 -0.26742,1.16622 -0.96317,2.31917 -2.06768,3.42501 -0.84838,0.84804 -1.7359,1.45919 -2.63703,1.81619 -0.9207,0.36396 -1.89116,0.56337 -2.88353,0.59223 -1.00498,0.0269 -2.06138,-0.10119 -3.13205,-0.38752 -1.14233,-0.30757 -2.32282,-0.68547 -3.50895,-1.12276 -0.57597,-0.23889 -1.29064,-0.54844 -2.12408,-0.92004 -0.87127,-0.38785 -1.62442,-0.73225 -2.23988,-1.02389 -1.55076,-0.72594 -2.9416,-1.20039 -4.13901,-1.41207 -1.42866,-0.25282 -2.75181,0.18182 -3.82713,1.25746 -1.2412,1.23922 -1.75879,2.73424 -1.53782,4.44259 0.20903,1.60949 1.00763,3.11778 2.37359,4.48407 2.0063,2.00564 4.06004,2.95188 6.10151,2.8195 1.80358,-0.11745 3.77405,-0.83842 5.86197,-2.14366 -0.32084,0.3069 -0.71898,0.67552 -1.19011,1.10186 -0.71566,0.64864 -1.39682,1.29728 -2.02654,1.92833 -0.62044,0.61977 -1.17518,1.26277 -1.64798,1.90975 -0.22063,0.30093 -0.42269,0.58991 -0.6055,0.86496 0.27073,-0.66091 0.29429,-1.21466 0.0806,-1.69243 -0.30424,-0.69144 -0.75547,-0.96881 -1.08029,-1.07863 l -0.11612,-0.0315 c -1.31188,-0.27306 -2.39681,-0.63603 -3.22395,-1.07863 -0.8278,-0.44393 -1.67518,-1.09688 -2.51824,-1.93994 -0.89383,-0.8935 -1.70604,-1.92435 -2.41373,-3.06403 -0.69244,-1.11646 -1.17883,-2.28666 -1.44526,-3.47776 -0.26045,-1.15926 -0.25282,-2.34041 0.0226,-3.51227 0.26676,-1.13769 0.93033,-2.2422 1.97147,-3.28367 0.90643,-0.90577 1.80723,-1.52156 2.6775,-1.82946 0.87823,-0.31188 1.75845,-0.43397 2.6128,-0.3643 0.90212,0.0753 1.82647,0.29462 2.74551,0.65162 1.00166,0.38819 2.02024,0.79927 3.0282,1.22263 0.68679,0.29363 1.3706,0.58361 2.04644,0.86397 0.67651,0.28069 1.34406,0.55408 2.00365,0.81784 1.55109,0.56371 3.04047,0.91407 4.45653,1.05209 1.6493,0.16191 3.12507,-0.39648 4.39149,-1.66091 1.38421,-1.38454 2.03517,-2.94027 1.93497,-4.62474 -0.0962,-1.63669 -0.83145,-3.15427 -2.1858,-4.50928 -1.14863,-1.14864 -2.2913,-2.0209 -3.39647,-2.5929 -1.13935,-0.58925 -2.31154,-0.91638 -3.4844,-0.97246 -1.14399,-0.0561 -2.33576,0.11613 -3.53483,0.51394 -1.07631,0.35932 -2.19542,0.88221 -3.33145,1.55607 -0.01,-0.0106 -0.0199,-0.0216 -0.0295,-0.0332 z m 6.31553,-6.41206 c -0.001,-0.001 -0.002,-0.001 -0.003,-0.001 0.001,0 0.002,0 0.003,0.001 z m 0.17384,-1.96118 c -0.34107,-3.3e-4 -0.66124,0.12707 -0.91307,0.37425 -0.30656,0.30856 -0.65461,0.72628 -1.07232,1.28467 -0.357,0.47876 -0.72064,0.90312 -1.08129,1.26244 -0.35799,0.35965 -0.79462,0.7495 -1.30093,1.16124 -0.52156,0.42535 -1.03616,0.83975 -1.54412,1.24486 -0.51427,0.41174 -0.9718,0.78201 -1.36961,1.11015 -0.40577,0.33278 -0.71167,0.60053 -0.90709,0.79363 -0.40478,0.40577 -0.52754,0.95653 -0.34041,1.51559 0.10451,0.31154 0.2704,0.60816 0.49303,0.88055 0.23988,0.29164 0.52422,0.51958 0.84704,0.6795 0.48706,0.24784 1.03384,0.23689 1.49038,-0.0352 1.11015,-0.67983 2.18248,-1.19343 3.19873,-1.53251 0.96251,-0.31951 1.90842,-0.45919 2.80988,-0.4144 0.8862,0.0421 1.78268,0.29562 2.66556,0.75248 0.92335,0.47744 1.90013,1.2286 2.90377,2.23225 1.01327,1.0136 1.53882,2.06668 1.60617,3.21897 0.066,1.10816 -0.37724,2.12176 -1.35467,3.0992 -0.83577,0.83477 -1.74718,1.18911 -2.78998,1.08792 -1.25116,-0.1221 -2.57697,-0.4353 -3.94126,-0.93066 -0.6221,-0.2495 -1.28202,-0.51924 -1.95023,-0.79694 -0.66988,-0.27804 -1.34705,-0.56503 -2.03318,-0.85833 -1.03085,-0.43265 -2.06635,-0.85103 -3.08426,-1.24552 -1.09655,-0.42601 -2.2077,-0.68845 -3.30192,-0.77969 -1.14034,-0.0929 -2.29728,0.066 -3.44127,0.47213 -1.15162,0.4071 -2.30258,1.18049 -3.42036,2.29794 -1.3069,1.30756 -2.14897,2.73257 -2.50232,4.23622 -0.34472,1.46715 -0.35335,2.94857 -0.0265,4.40311 0.31486,1.40809 0.88553,2.78533 1.69575,4.09189 0.78898,1.26974 1.69674,2.4207 2.69807,3.42203 0.98075,0.98075 1.98506,1.75016 2.98539,2.28666 0.93696,0.50165 2.11181,0.91008 3.49535,1.21632 -0.0239,0.0853 -0.0793,0.23623 -0.20869,0.46814 -0.28003,0.47047 -0.2505,1.07067 0.0929,1.58162 0.17783,0.26941 0.40245,0.51725 0.6629,0.73059 0.27207,0.22296 0.56868,0.38852 0.88122,0.49237 0.74652,0.25282 1.32515,-0.0949 1.5783,-0.56005 0.24983,-0.43398 0.58294,-0.93597 0.99038,-1.49171 0.41307,-0.56569 0.90046,-1.13005 1.44923,-1.67849 0.6075,-0.6085 1.26476,-1.23424 1.95487,-1.85966 0.69974,-0.6337 1.24983,-1.14963 1.63338,-1.53284 0.17385,-0.17319 0.55374,-0.66489 0.29064,-1.45952 -0.10484,-0.31088 -0.26908,-0.60418 -0.48938,-0.87724 -0.25614,-0.30922 -0.5438,-0.5335 -0.86165,-0.67617 -0.44757,-0.2067 -0.92169,-0.20903 -1.32514,-0.002 l -0.0919,0.0534 c -1.94292,1.27439 -3.72461,1.97213 -5.29461,2.07465 -1.43729,0.0942 -2.98042,-0.65826 -4.56336,-2.24054 -1.04811,-1.04844 -1.65594,-2.16954 -1.80723,-3.33244 -0.14134,-1.09323 0.16722,-1.97611 0.97113,-2.77869 0.62177,-0.62177 1.28036,-0.84539 2.07299,-0.70538 1.02521,0.18149 2.24917,0.60285 3.63735,1.25282 0.62475,0.29628 1.39283,0.64731 2.27836,1.04147 0.85767,0.38222 1.59423,0.70139 2.18978,0.94791 l 0.0365,0.0143 c 1.24784,0.46118 2.49302,0.85965 3.70039,1.1848 1.25912,0.33643 2.50431,0.48938 3.70603,0.45454 1.22395,-0.0355 2.42169,-0.28135 3.55838,-0.73092 1.15594,-0.45786 2.27007,-1.21798 3.31221,-2.25978 1.37358,-1.37492 2.24817,-2.85169 2.60052,-4.38918 0.34307,-1.50597 0.34174,-3.01326 -0.003,-4.48108 -0.33577,-1.42932 -0.95057,-2.84803 -1.8278,-4.21565 -0.857,-1.33609 -1.82813,-2.55009 -2.88586,-3.60848 -0.89184,-0.89151 -1.99469,-1.79297 -3.27836,-2.67916 -1.25946,-0.87094 -2.49569,-1.54114 -3.67584,-1.99336 -0.005,-0.0129 -0.0106,-0.0315 -0.0169,-0.0564 -0.002,-0.0226 0.0196,-0.13337 0.14466,-0.32183 0.27405,-0.34605 0.42003,-0.92003 0.0216,-1.55076 -0.16556,-0.25547 -0.3507,-0.4844 -0.5574,-0.68977 -0.21466,-0.21732 -0.48042,-0.39616 -0.78367,-0.52555 -0.20305,-0.0876 -0.40876,-0.13039 -0.60717,-0.13039 z"
               id="path40"
               fill="#25529b" />
          </g>
        </g>
      </g>
    </g>
  </g>
</svg>
