<?xml version="1.0" standalone="no"?>
<!DOCTYPE svg PUBLIC "-//W3C//DTD SVG 20010904//EN"
 "http://www.w3.org/TR/2001/REC-SVG-20010904/DTD/svg10.dtd">
<svg version="1.0" xmlns="http://www.w3.org/2000/svg"
 width="279.000000pt" height="300.000000pt" viewBox="0 0 279.000000 300.000000"
 preserveAspectRatio="xMidYMid meet">

<g transform="translate(0.000000,300.000000) scale(0.100000,-0.100000)"
fill="#000000" stroke="none">
<path d="M1240 2977 c-19 -9 -26 -22 -28 -49 -3 -41 8 -51 70 -62 40 -7 53
-27 38 -57 -13 -23 -62 -26 -84 -3 -15 14 -16 14 -16 -4 0 -40 91 -33 123 10
27 36 17 76 -21 83 -61 13 -77 21 -80 42 -6 42 70 56 81 15 3 -10 5 -6 6 11 1
24 -2 27 -31 27 -18 0 -44 -6 -58 -13z"/>
<path d="M1401 2968 c1 -17 2 -19 6 -5 5 18 29 22 51 9 16 -11 5 -172 -12
-173 -21 -1 29 -18 54 -18 14 1 19 3 13 6 -14 5 -17 81 -7 146 6 30 11 37 30
37 13 0 28 -8 33 -17 9 -16 10 -16 11 3 0 19 -7 22 -67 27 -108 11 -113 10
-112 -15z"/>
<path d="M1634 2875 c-32 -47 -66 -85 -74 -86 -10 0 -8 -3 5 -9 32 -14 43 -11
38 8 -7 30 18 43 60 31 29 -8 37 -15 37 -34 0 -13 -5 -25 -12 -27 -7 -3 6 -9
29 -15 40 -10 41 -10 33 11 -5 11 -16 59 -24 105 -9 47 -19 88 -24 93 -4 4
-35 -30 -68 -77z m55 -22 c1 -16 -5 -23 -16 -23 -37 0 -43 14 -21 49 19 30 23
32 29 15 4 -10 8 -29 8 -41z"/>
<path d="M926 2911 c-31 -11 -44 -20 -35 -23 17 -7 64 -149 56 -171 -5 -12 0
-13 29 -4 25 7 31 14 24 22 -19 23 -60 159 -51 168 5 5 19 7 32 5 18 -2 25
-10 27 -33 2 -18 -2 -33 -11 -40 -13 -9 -8 -17 30 -48 43 -35 72 -45 86 -31 3
4 -11 19 -32 35 -51 36 -56 46 -40 76 29 54 -27 76 -115 44z"/>
<path d="M1816 2904 c-4 -9 -4 -19 -1 -22 3 -3 5 0 5 6 0 14 29 15 49 3 13 -8
10 -21 -13 -83 -16 -40 -35 -78 -43 -84 -11 -10 -8 -14 18 -23 39 -14 42 -14
34 0 -4 5 7 46 25 89 31 76 33 78 56 68 13 -6 24 -18 24 -25 0 -8 5 -11 10 -8
23 14 6 32 -58 57 -101 41 -99 41 -106 22z"/>
<path d="M723 2820 c-18 -10 -39 -31 -49 -45 -37 -57 15 -155 83 -155 108 0
161 106 92 185 -36 41 -76 46 -126 15z m73 -15 c25 -17 54 -74 54 -106 0 -48
-53 -74 -101 -49 -22 12 -59 80 -59 109 0 22 44 61 69 61 9 0 26 -7 37 -15z"/>
<path d="M2036 2815 c6 -15 -47 -116 -77 -146 -17 -17 -15 -19 43 -54 33 -19
61 -34 62 -33 1 2 8 12 16 23 14 18 14 19 -2 7 -14 -11 -22 -11 -47 3 -17 8
-31 20 -31 26 0 13 32 69 40 69 11 -1 37 -26 42 -40 4 -12 7 -10 17 8 10 19 9
22 -6 22 -37 0 -47 15 -33 49 7 17 20 31 29 31 21 -1 51 -24 51 -39 0 -7 5 -9
10 -6 19 12 10 23 -51 59 -68 41 -70 41 -63 21z"/>
<path d="M554 2708 c-43 -32 -52 -42 -32 -35 13 5 31 -10 68 -56 27 -34 50
-70 50 -80 0 -16 3 -15 30 5 23 17 27 24 16 28 -26 9 -108 123 -103 142 6 23
6 23 -29 -4z"/>
<path d="M2282 2660 c3 -9 -17 -38 -48 -72 -58 -61 -62 -73 -38 -119 13 -25
64 -59 89 -59 4 0 32 24 63 54 31 29 63 55 70 57 10 3 7 10 -9 24 -18 16 -21
17 -17 4 8 -20 -89 -119 -115 -119 -24 0 -57 36 -57 63 0 22 80 110 108 118 8
3 2 15 -19 34 -17 17 -29 23 -27 15z"/>
<path d="M387 2560 c-41 -40 -47 -50 -30 -50 24 0 137 -115 128 -130 -12 -19
1 -10 31 21 16 16 22 28 14 24 -10 -3 -37 17 -79 59 l-63 64 23 16 c32 22 65
1 63 -41 -1 -28 1 -30 54 -41 49 -10 58 -10 75 6 18 16 17 17 -45 27 -57 9
-63 12 -60 32 4 32 -15 63 -39 63 -12 0 -44 -22 -72 -50z"/>
<path d="M1245 2589 c-198 -28 -394 -128 -544 -277 -183 -181 -277 -394 -288
-652 -7 -155 13 -276 64 -404 96 -242 264 -422 495 -531 124 -58 229 -85 364
-92 290 -15 553 86 753 290 145 148 235 322 271 522 17 95 8 329 -15 415 -133
490 -602 800 -1100 729z m357 -29 c111 -24 219 -69 316 -132 75 -50 212 -172
212 -190 0 -6 -21 3 -47 18 -151 86 -214 114 -262 114 -53 0 -115 -28 -209
-94 l-53 -37 -66 60 c-76 70 -151 111 -205 111 -60 0 -136 -34 -269 -122 -68
-44 -139 -87 -158 -95 -40 -17 -283 -74 -289 -68 -7 7 94 137 145 186 236 227
558 318 885 249z m-263 -170 c45 -13 119 -71 232 -184 89 -88 228 -198 329
-260 32 -20 38 -26 20 -22 -104 22 -226 37 -373 46 -210 12 -574 59 -846 110
-77 14 -94 12 -41 -6 79 -27 84 -65 16 -112 -40 -28 -204 -88 -213 -78 -4 3
13 27 38 52 41 42 44 48 45 101 0 38 5 59 15 64 8 5 74 22 148 39 73 16 155
41 181 54 27 13 51 22 54 20 3 -2 4 -1 1 2 -2 4 35 33 84 65 171 111 230 132
310 109z m558 -47 c21 -10 88 -46 150 -81 101 -57 115 -68 152 -125 54 -83 98
-184 122 -276 23 -88 39 -221 27 -221 -4 0 -8 4 -8 8 0 22 -66 105 -109 135
-26 19 -105 65 -177 102 -113 60 -166 92 -298 181 -17 12 -66 54 -108 93 l-78
73 66 45 c123 84 186 100 261 66z m-462 -463 c148 -13 246 -36 332 -75 183
-84 297 -283 252 -442 -16 -61 -101 -148 -182 -187 -54 -27 -59 -28 -76 -12
-11 10 -22 28 -25 42 -9 35 -37 30 -96 -18 -29 -24 -59 -47 -66 -53 -9 -6 -87
6 -236 35 -191 39 -240 45 -343 45 -109 0 -125 -3 -179 -28 -32 -15 -93 -52
-137 -82 l-78 -55 -21 30 c-41 57 -110 217 -132 306 -26 106 -31 322 -10 417
l13 57 77 1 c42 0 149 6 237 13 199 17 524 19 670 6z m644 -376 c12 -30 21
-76 21 -102 0 -102 -94 -227 -213 -282 -72 -34 -199 -56 -254 -44 -35 7 -31 8
42 15 207 18 376 148 392 303 5 49 -4 110 -24 161 -4 12 -3 16 5 11 6 -3 20
-31 31 -62z m-808 -541 c36 -75 13 -112 -106 -169 -95 -46 -113 -43 -37 7 105
68 116 121 52 246 l-39 78 54 -59 c30 -32 64 -78 76 -103z m-296 11 c0 -13 -8
-20 -27 -22 -32 -4 -39 21 -10 37 23 14 37 8 37 -15z"/>
<path d="M620 2033 c0 -17 -12 -40 -32 -61 -30 -31 -30 -33 -8 -22 14 7 40 23
58 37 26 19 30 28 22 42 -5 10 -16 21 -25 25 -11 4 -15 -1 -15 -21z"/>
<path d="M2470 2459 c0 -22 -134 -114 -150 -104 -9 6 -9 2 -1 -13 11 -21 11
-21 38 4 32 29 92 68 98 62 2 -2 -7 -40 -20 -83 -14 -44 -25 -93 -25 -108 l0
-28 77 52 c42 29 83 52 90 52 16 0 16 7 -1 30 -13 17 -14 17 -18 -1 -5 -18
-95 -88 -103 -80 -1 1 8 39 21 83 28 95 28 105 9 131 -12 16 -14 17 -15 3z"/>
<path d="M252 2391 c-31 -45 -36 -58 -22 -54 17 5 120 -61 146 -93 9 -12 19
-3 50 41 34 50 36 57 22 71 -14 14 -15 14 -12 -8 3 -13 -4 -34 -15 -47 l-18
-24 -32 22 c-36 26 -37 50 -4 66 21 11 21 11 2 23 -16 10 -19 9 -19 -7 0 -10
-7 -24 -15 -31 -14 -12 -27 -8 -57 18 -16 13 -16 16 -1 38 8 13 25 24 37 24
17 0 18 2 6 10 -23 15 -26 13 -68 -49z"/>
<path d="M184 2272 c-9 -5 -64 -107 -64 -118 0 -1 8 0 18 2 22 5 158 -68 155
-84 -6 -24 7 -11 28 30 14 27 17 38 7 31 -11 -10 -29 -5 -92 24 -78 37 -90 54
-53 77 22 14 51 -3 55 -33 5 -30 22 -16 22 18 0 44 -44 74 -76 53z"/>
<path d="M2620 2221 c0 -14 -149 -83 -167 -77 -8 4 -7 -5 5 -30 9 -20 18 -31
20 -24 6 17 143 82 163 77 18 -5 18 -3 2 27 -19 38 -23 43 -23 27z"/>
<path d="M2670 2105 c0 -8 -34 -43 -75 -77 -41 -34 -75 -68 -75 -74 0 -8 33
-15 98 -19 53 -4 103 -12 110 -17 14 -12 15 6 2 37 -7 17 -9 17 -9 3 -1 -20
-29 -22 -111 -10 l-45 7 59 48 c45 37 61 45 72 36 11 -9 10 -1 -2 35 -16 47
-24 57 -24 31z"/>
<path d="M86 2078 c-8 -33 -7 -45 3 -29 8 12 21 11 83 -10 76 -25 86 -36 74
-85 -11 -42 -36 -46 -118 -20 -40 13 -74 23 -75 23 -1 -1 -4 -14 -8 -30 -6
-22 -4 -26 8 -21 8 3 44 -3 79 -14 75 -22 100 -16 122 27 36 69 12 109 -80
136 -33 9 -64 23 -70 31 -10 12 -13 11 -18 -8z"/>
<path d="M2734 1840 c-5 -5 -48 -12 -95 -16 l-85 -7 7 -51 c4 -28 8 -59 8 -68
1 -10 8 -18 17 -18 12 0 14 3 6 13 -6 6 -12 28 -14 47 -3 33 -1 35 34 41 45 7
48 5 48 -33 0 -22 5 -28 21 -28 19 0 19 1 5 16 -27 27 -20 51 17 57 17 2 35 3
40 0 12 -7 8 -71 -5 -76 -7 -3 -2 -6 10 -6 23 -1 24 0 17 62 -7 66 -15 83 -31
67z"/>
<path d="M22 1812 c-14 -36 -7 -94 13 -108 36 -27 68 -14 94 39 24 49 48 60
70 33 19 -23 9 -69 -17 -82 -21 -10 -21 -12 -5 -18 25 -10 43 19 43 69 0 55
-27 80 -81 76 -10 -1 -25 -22 -37 -51 -21 -50 -27 -55 -56 -44 -26 10 -21 73
6 83 l22 8 -23 6 c-15 4 -24 0 -29 -11z"/>
<path d="M2571 1615 c0 -27 3 -44 6 -37 3 8 32 12 94 12 87 0 89 -1 89 -24 0
-35 -25 -52 -55 -38 -14 7 -25 19 -25 28 0 8 -3 14 -7 12 -91 -43 -103 -53
-103 -82 l0 -29 23 19 c12 11 35 28 50 38 28 17 29 17 52 -8 27 -29 35 -31 57
-13 11 8 17 35 21 87 2 41 2 69 0 63 -3 -9 -31 -13 -93 -13 -74 0 -91 3 -99
18 -8 13 -10 6 -10 -33z"/>
<path d="M188 1553 c7 -2 12 -22 12 -44 0 -39 0 -39 -40 -39 -45 0 -61 20 -41
51 12 21 7 22 -24 9 -11 -5 -14 -9 -7 -9 7 -1 12 -14 12 -31 0 -27 -3 -30 -34
-30 -34 0 -46 13 -46 50 0 10 6 21 13 23 7 3 5 6 -5 6 -14 1 -18 -7 -17 -31 1
-39 16 -130 18 -107 1 17 62 29 149 29 47 0 47 1 36 84 -5 34 -11 46 -23 45
-10 0 -12 -2 -3 -6z"/>
<path d="M2554 1405 c-20 -49 -18 -72 11 -100 41 -42 69 -32 104 38 19 39 46
46 61 16 15 -27 -1 -69 -27 -69 -17 -1 -17 -1 0 -11 25 -15 37 -1 44 50 7 50
-15 81 -58 81 -22 0 -32 -8 -51 -42 -26 -49 -60 -61 -77 -29 -15 26 2 69 31
80 l22 8 -23 6 c-19 5 -25 0 -37 -28z"/>
<path d="M185 1332 c-22 -34 -47 -62 -55 -62 -21 0 -90 48 -90 62 0 6 -3 9 -6
5 -9 -9 6 -47 19 -47 7 0 34 -14 62 -32 49 -30 49 -31 25 -40 -14 -5 -37 -8
-51 -6 -25 4 -26 3 -16 -34 8 -32 11 -36 21 -23 6 8 44 24 84 36 61 17 76 18
89 7 15 -11 16 -11 9 7 -4 11 -10 33 -13 49 -6 27 -7 28 -14 9 -7 -19 -65 -40
-77 -28 -3 2 11 28 30 57 25 38 33 60 28 77 -5 22 -9 19 -45 -37z"/>
<path d="M2517 1248 c-4 -14 -10 -34 -14 -44 -4 -12 -3 -15 6 -10 19 12 171
-43 172 -62 0 -10 6 -5 14 13 18 39 18 56 1 49 -25 -10 -158 39 -166 60 -6 18
-7 17 -13 -6z"/>
<path d="M280 1163 c0 -5 -29 -45 -65 -88 -36 -43 -65 -82 -65 -86 0 -5 51 -7
114 -6 96 2 112 4 108 17 -9 27 -14 32 -21 22 -3 -5 -15 -12 -27 -16 -17 -5
-24 1 -40 29 -20 38 -11 71 20 69 14 -2 14 1 -1 30 -19 37 -23 43 -23 29z m0
-150 c0 -8 -13 -13 -35 -13 -41 0 -43 5 -13 37 21 23 23 23 35 7 7 -10 13 -24
13 -31z"/>
<path d="M2446 1073 c-14 -29 -14 -34 -3 -24 13 10 29 5 89 -25 40 -20 75 -38
77 -40 9 -8 -31 -54 -41 -48 -7 4 -8 3 -4 -4 4 -7 13 -12 19 -12 15 0 90 147
82 161 -10 16 -23 10 -19 -8 3 -10 -1 -25 -8 -34 -12 -15 -19 -14 -79 15 -36
17 -73 37 -81 43 -12 10 -17 6 -32 -24z"/>
<path d="M365 950 c-3 -5 3 -10 14 -10 18 0 51 -33 51 -51 0 -15 -126 -100
-142 -95 -19 4 -14 -10 16 -49 12 -15 15 -16 16 -5 0 17 125 110 147 110 8 0
-3 22 -28 55 -40 53 -61 66 -74 45z"/>
<path d="M2343 905 c-15 -23 -18 -32 -8 -29 26 10 73 -28 95 -77 11 -26 20
-52 20 -58 0 -6 5 -11 10 -11 13 0 13 6 -4 38 -7 15 -17 37 -20 50 -7 22 -6
22 49 20 48 -3 59 0 71 17 13 19 11 20 -56 20 -55 0 -74 4 -97 22 -15 11 -27
26 -25 32 5 22 -14 10 -35 -24z"/>
<path d="M70 440 c-52 -52 -23 -160 44 -160 18 0 56 34 56 50 0 18 -18 10 -23
-10 -6 -25 -48 -27 -71 -4 -18 18 -21 76 -6 105 14 25 65 26 79 2 5 -10 13
-14 18 -10 11 11 -34 47 -58 47 -10 0 -28 -9 -39 -20z"/>
<path d="M202 373 l3 -88 53 -3 c31 -2 52 1 52 7 0 6 -20 11 -45 11 -45 0 -45
0 -45 34 0 34 1 35 43 39 l42 4 -42 1 c-41 2 -43 4 -43 32 0 29 2 30 46 30 27
0 43 4 39 10 -3 6 -29 10 -56 10 l-50 0 3 -87z"/>
<path d="M340 375 c0 -98 18 -116 22 -22 l3 62 38 -68 c21 -37 43 -65 48 -61
12 7 12 174 -1 174 -5 0 -10 -30 -12 -67 l-3 -68 -38 68 c-21 37 -43 67 -48
67 -5 0 -9 -38 -9 -85z"/>
<path d="M485 450 c-4 -6 5 -10 19 -10 26 0 26 -1 26 -74 0 -41 5 -78 10 -81
6 -4 10 23 10 74 0 80 0 81 25 81 14 0 25 5 25 10 0 6 -24 10 -54 10 -30 0
-58 -4 -61 -10z"/>
<path d="M627 443 c-4 -14 -2 -117 2 -155 1 -12 101 -9 101 2 0 6 -21 10 -46
10 -45 0 -45 0 -42 33 3 29 7 33 43 38 l40 6 -42 2 c-41 1 -43 3 -43 31 0 29
2 30 45 30 25 0 45 5 45 10 0 6 -22 10 -49 10 -39 0 -51 -4 -54 -17z"/>
<path d="M772 368 c1 -51 3 -74 5 -50 4 37 7 42 28 42 18 0 31 -11 47 -40 13
-22 26 -40 31 -40 12 0 8 13 -14 49 -18 30 -19 35 -5 50 38 42 9 81 -58 81
l-36 0 2 -92z m88 57 c19 -22 -5 -45 -46 -45 -31 0 -34 3 -34 30 0 27 3 30 34
30 18 0 39 -7 46 -15z"/>
<path d="M1337 453 c-11 -10 -8 -161 3 -168 6 -4 10 10 10 34 0 40 1 41 35 41
19 0 35 5 35 10 0 6 -16 10 -35 10 -32 0 -35 2 -35 30 0 28 2 30 40 30 22 0
40 5 40 10 0 11 -83 14 -93 3z"/>
<path d="M1467 453 c-11 -11 -8 -163 3 -163 6 0 10 16 10 35 0 31 3 35 25 35
19 0 29 -10 45 -40 11 -22 25 -40 31 -40 6 0 0 20 -14 44 -23 41 -23 44 -5 55
22 14 23 44 2 65 -15 16 -84 22 -97 9z m88 -43 c0 -22 -5 -25 -37 -28 -36 -3
-38 -2 -38 28 0 30 2 31 38 28 32 -3 37 -6 37 -28z"/>
<path d="M1618 438 c-2 -13 -2 -53 0 -90 l4 -68 49 0 c27 0 49 5 49 10 0 6
-21 10 -46 10 -45 0 -45 0 -42 33 3 29 7 33 43 38 l40 6 -42 2 c-41 1 -43 3
-43 31 0 29 2 30 45 30 25 0 45 5 45 10 0 6 -22 10 -49 10 -44 0 -50 -3 -53
-22z"/>
<path d="M1766 438 c-21 -29 -3 -57 45 -73 26 -9 34 -17 34 -36 0 -35 -52 -40
-77 -7 -14 19 -18 20 -18 6 0 -26 45 -52 75 -44 32 8 48 44 31 70 -7 11 -28
25 -47 31 -23 8 -34 18 -34 31 0 26 41 31 66 8 23 -20 26 -2 3 20 -22 23 -60
20 -78 -6z"/>
<path d="M1903 370 c0 -65 2 -81 6 -50 6 45 6 45 46 45 40 0 40 0 46 -45 4
-31 6 -15 6 50 0 59 -2 80 -6 55 -6 -39 -7 -40 -46 -40 -39 0 -40 1 -46 40 -4
25 -6 4 -6 -55z"/>
<path d="M2040 453 c0 -13 28 -140 36 -163 5 -13 6 -13 14 0 4 8 13 41 20 73
7 31 17 57 21 57 4 0 13 -26 19 -57 15 -71 26 -95 34 -73 12 34 36 139 36 156
0 34 -18 -6 -25 -56 -9 -64 -21 -80 -29 -39 -13 66 -27 109 -35 109 -5 0 -17
-32 -26 -71 -19 -77 -29 -77 -40 1 -6 43 -24 90 -25 63z"/>
<path d="M2256 374 c-15 -47 -25 -88 -23 -91 3 -2 9 10 15 26 9 26 16 31 44
31 29 0 35 -5 46 -32 23 -62 22 -20 -2 48 -33 94 -37 104 -46 104 -4 0 -20
-39 -34 -86z m57 -16 c-2 -5 -13 -8 -24 -8 -22 0 -24 16 -8 57 l11 28 13 -35
c7 -19 10 -38 8 -42z"/>
<path d="M2360 450 c0 -5 9 -10 20 -10 11 0 20 -6 21 -12 0 -7 2 -41 3 -75 3
-93 16 -89 16 5 0 81 0 82 25 82 14 0 25 5 25 10 0 6 -25 10 -55 10 -30 0 -55
-4 -55 -10z"/>
<path d="M2500 370 l0 -90 50 0 c28 0 50 5 50 10 0 6 -21 10 -46 10 -45 0 -45
0 -42 33 3 30 6 32 48 38 l45 6 -47 1 c-46 2 -48 3 -48 32 0 29 2 30 45 30 25
0 45 5 45 10 0 6 -22 10 -50 10 l-50 0 0 -90z"/>
<path d="M2642 368 c1 -51 3 -74 5 -50 4 37 7 42 28 42 18 0 32 -11 51 -41 31
-50 45 -44 15 7 -20 33 -21 38 -7 46 9 5 16 22 16 38 0 35 -23 50 -74 50 l-36
0 2 -92z m92 56 c10 -25 -12 -44 -50 -44 -31 0 -34 3 -34 30 0 28 2 30 39 30
27 0 41 -5 45 -16z"/>
<path d="M971 343 c1 -32 4 -46 6 -31 3 18 12 28 26 31 l22 4 -22 2 c-35 2
-31 39 5 44 25 4 25 4 -5 6 l-33 1 1 -57z"/>
<path d="M1066 378 c-20 -28 -20 -49 -1 -74 14 -18 14 -17 4 9 -9 20 -9 33 -1
52 15 32 49 33 62 3 5 -14 9 -17 9 -7 2 40 -49 52 -73 17z"/>
<path d="M1171 343 c1 -32 4 -46 6 -30 6 35 16 34 47 -5 26 -34 37 -28 11 6
-10 14 -11 23 -3 36 17 27 3 50 -32 50 l-30 0 1 -57z m59 27 c0 -15 -7 -20
-25 -20 -18 0 -25 5 -25 20 0 15 7 20 25 20 18 0 25 -5 25 -20z"/>
<path d="M1113 303 c-24 -25 -17 -31 11 -10 11 8 17 18 15 23 -2 5 -14 -1 -26
-13z"/>
<path d="M9 133 c0 -27 -1 -65 -2 -86 -1 -20 1 -37 6 -37 4 0 7 16 7 35 0 31
3 35 25 35 19 0 31 -10 46 -35 12 -19 25 -35 31 -35 5 0 0 16 -11 36 -20 33
-20 38 -6 54 18 20 20 51 3 68 -7 7 -31 12 -55 12 l-43 0 -1 -47z m95 11 c10
-25 -12 -44 -50 -44 -31 0 -34 3 -34 30 0 28 2 30 39 30 27 0 41 -5 45 -16z"/>
<path d="M160 95 l0 -85 58 2 57 1 -50 6 c-48 6 -50 7 -50 36 0 28 3 30 45 34
l45 5 -45 5 c-40 5 -45 9 -48 34 -3 26 -2 27 42 27 25 0 46 5 46 10 0 6 -22
10 -50 10 l-50 0 0 -85z"/>
<path d="M312 168 c-7 -7 -12 -23 -12 -35 0 -19 10 -28 46 -43 37 -16 45 -24
42 -42 -4 -33 -51 -37 -72 -7 -19 27 -32 19 -17 -9 21 -39 81 -40 102 -1 16
30 2 56 -36 69 -18 6 -39 18 -46 27 -11 13 -10 17 6 29 25 18 31 18 55 -6 13
-13 20 -15 20 -7 0 21 -22 37 -50 37 -14 0 -31 -5 -38 -12z"/>
<path d="M440 95 l0 -85 58 2 c56 2 56 2 10 5 -47 4 -48 5 -48 38 0 33 2 34
43 38 l42 4 -42 1 c-41 2 -43 4 -43 32 0 28 2 30 40 30 22 0 40 5 40 10 0 6
-22 10 -50 10 l-50 0 0 -85z"/>
<path d="M596 99 c-14 -46 -24 -85 -21 -87 2 -3 9 7 14 22 9 21 17 26 45 26
28 0 35 -4 40 -25 4 -14 10 -25 16 -25 12 0 -44 163 -58 168 -6 2 -22 -31 -36
-79z m51 17 c12 -38 9 -46 -19 -46 -20 0 -21 3 -12 49 8 40 18 39 31 -3z"/>
<path d="M720 95 c0 -50 4 -85 10 -85 6 0 10 15 10 33 0 19 3 36 6 39 13 13
45 -7 64 -39 11 -20 23 -33 27 -30 3 4 -4 21 -14 40 -20 33 -20 34 -2 45 11 7
19 21 19 31 0 32 -28 51 -76 51 l-44 0 0 -85z m95 35 c0 -22 -5 -25 -37 -28
-36 -3 -38 -2 -38 28 0 30 2 31 38 28 32 -3 37 -6 37 -28z"/>
<path d="M891 154 c-43 -55 -12 -154 48 -154 20 0 66 48 56 58 -3 3 -12 -4
-21 -16 -17 -25 -56 -29 -73 -8 -7 8 -12 34 -13 57 0 33 5 47 22 61 28 23 35
23 60 -4 15 -16 20 -18 20 -7 0 45 -67 53 -99 13z"/>
<path d="M1033 95 c0 -50 2 -71 4 -47 l4 43 42 -3 c41 -3 42 -4 48 -43 4 -26
6 -8 6 50 0 50 -2 74 -4 55 -5 -42 -13 -47 -57 -42 -32 4 -35 7 -39 41 -2 20
-4 -4 -4 -54z"/>
<path d="M1600 95 l0 -85 53 2 52 2 -47 3 c-47 4 -48 5 -48 39 0 34 0 34 48
36 l47 1 -45 6 c-40 5 -45 9 -48 34 -3 26 -2 27 42 27 25 0 46 5 46 10 0 6
-22 10 -50 10 l-50 0 0 -85z"/>
<path d="M1740 95 l0 -85 38 0 c46 0 58 8 72 45 25 66 -11 125 -77 125 l-33 0
0 -85z m90 46 c15 -30 12 -88 -6 -106 -9 -9 -28 -15 -43 -13 -25 3 -26 6 -29
71 l-3 67 35 0 c25 0 38 -6 46 -19z"/>
<path d="M1890 115 c0 -79 17 -115 54 -115 42 0 56 29 54 111 l-1 74 -6 -72
c-7 -81 -18 -99 -55 -89 -20 5 -26 14 -32 51 -3 25 -4 54 -1 64 2 10 1 25 -4
32 -5 9 -9 -13 -9 -56z"/>
<path d="M2060 160 c-30 -30 -28 -109 3 -138 13 -12 30 -22 38 -22 23 0 59 29
59 48 0 14 -4 12 -18 -6 -40 -52 -102 -1 -88 72 10 51 48 67 83 35 12 -13 23
-18 23 -12 0 17 -35 43 -58 43 -12 0 -31 -9 -42 -20z"/>
<path d="M2232 163 c-15 -28 -52 -156 -47 -162 3 -2 10 10 16 27 9 27 16 32
45 32 28 0 35 -4 40 -25 3 -14 11 -25 16 -25 6 0 8 6 6 13 -3 6 -15 42 -27 79
-25 75 -35 87 -49 61z m38 -80 c0 -7 -11 -13 -25 -13 -28 0 -30 4 -13 51 l12
34 12 -30 c7 -17 13 -36 14 -42z"/>
<path d="M2310 170 c0 -5 11 -10 25 -10 23 0 24 -3 28 -77 l3 -78 2 78 c2 75
3 77 27 77 14 0 25 5 25 10 0 6 -25 10 -55 10 -30 0 -55 -4 -55 -10z"/>
<path d="M2450 95 c0 -50 4 -85 10 -85 6 0 10 35 10 85 0 50 -4 85 -10 85 -6
0 -10 -35 -10 -85z"/>
<path d="M2527 163 c-36 -41 -34 -107 5 -143 29 -27 54 -25 83 5 50 49 20 155
-44 155 -15 0 -35 -8 -44 -17z m74 -12 c18 -15 23 -28 23 -60 -2 -47 -17 -71
-47 -71 -54 0 -79 88 -37 130 25 25 32 25 61 1z"/>
<path d="M2670 95 c0 -50 4 -85 10 -85 6 0 10 28 10 63 l0 62 20 -25 c10 -14
27 -42 36 -62 29 -65 44 -49 44 47 0 101 -18 115 -22 18 l-3 -68 -38 68 c-21
37 -42 67 -47 67 -6 0 -10 -38 -10 -85z"/>
<path d="M1256 104 c-4 -9 -4 -19 -1 -22 3 -3 5 0 5 7 0 7 5 9 10 6 6 -3 10
-2 10 4 0 18 -18 21 -24 5z"/>
<path d="M1332 63 c1 -53 2 -54 5 -14 l4 45 25 -42 c28 -47 34 -51 34 -21 0
11 -4 18 -10 14 -5 -3 -18 12 -30 35 -11 22 -23 40 -25 40 -3 0 -4 -26 -3 -57z"/>
<path d="M1430 60 c0 -33 4 -60 8 -60 5 0 7 25 4 56 -4 53 -4 56 18 52 13 -1
27 -10 33 -19 13 -21 1 -66 -18 -72 -11 -4 -10 -5 2 -3 25 2 39 49 25 81 -9
19 -19 25 -42 25 l-30 0 0 -60z"/>
<path d="M1391 74 c0 -11 3 -14 6 -6 3 7 2 16 -1 19 -3 4 -6 -2 -5 -13z"/>
<path d="M1280 68 c0 -20 -30 -25 -31 -5 0 6 -5 1 -10 -12 -5 -13 -8 -29 -5
-35 2 -6 5 -3 5 7 1 11 9 17 26 17 13 0 29 -8 34 -17 15 -26 13 -10 -4 28 -8
19 -14 26 -15 17z"/>
</g>
</svg>
