<?xml version="1.0" encoding="utf-8"?>
<!-- Generator: Adobe Illustrator 25.2.1, SVG Export Plug-In . SVG Version: 6.00 Build 0)  -->
<svg version="1.1" id="UT_icon_2014" xmlns="http://www.w3.org/2000/svg" xmlns:xlink="http://www.w3.org/1999/xlink" x="0px"
	 y="0px" viewBox="0 0 2943.1 2114.8" style="enable-background:new 0 0 2943.1 2114.8;" xml:space="preserve">
<style type="text/css">
	.st0{fill:#FF8200;}
	.st1{fill:none;}
	.st2{fill:#FFFFFF;}
</style>
<rect class="st0" width="2943.1" height="2114.6"/>
<g>
	<path class="st1" d="M1495.6,2114.6"/>
</g>
<g>
	<path class="st2" d="M1908.3,900.2v687.1h-294.5v-1056h793.9c-16.5,16.4-10.5,41-32.9,73.2c-29.1,38.9-57.7,20.7-81.5,49.3
		c-21.8,26.4-12.3,54.1-32.9,81.5c-29.2,39-74,24.7-106.1,65.8c-26.2,32.9-24.7,66.2-49.4,99.2H1908.3z"/>
	<path class="st2" d="M1279,1243.7V900.3H894.5c24.6-32.9,23.1-64.9,49.3-97.8c32.9-41,76.8-26.8,106-65.7
		c20.5-27.4,11-55,32.9-81.4c23.6-28.6,52.2-10.5,81.4-49.3c22.4-32.1,17.8-58.3,34.3-74.7H1565l0,745.3l-270.3,310.6H846
		c-95.7,0-180-65.7-221.1-106.8c-32.8-32.1-89.7-117-89.6-203.9l0-745.3h342.8V1178c-0.1,20.2,2.6,34.5,16.4,49.3
		c11.8,12.6,25,15.8,40.2,16.4L1279,1243.7z"/>
</g>
</svg>
